<svg xmlns="http://www.w3.org/2000/svg" xmlns:xlink="http://www.w3.org/1999/xlink" width="500" zoomAndPan="magnify" viewBox="0 0 375 374.999991" height="500" preserveAspectRatio="xMidYMid meet" version="1.0"><defs><filter x="0%" y="0%" width="100%" height="100%" id="446aa6d517"><feColorMatrix values="0 0 0 0 1 0 0 0 0 1 0 0 0 0 1 0 0 0 1 0" color-interpolation-filters="sRGB"/></filter><mask id="1091cdbc8b"><g filter="url(#446aa6d517)"><rect x="-37.5" width="450" fill="#000000" y="-37.499999" height="449.999989" fill-opacity="0.23"/></g></mask><clipPath id="d0e51965ab"><path d="M 0.320312 0.679688 L 162.800781 0.679688 L 162.800781 301.402344 L 0.320312 301.402344 Z M 0.320312 0.679688 " clip-rule="nonzero"/></clipPath><clipPath id="ec559972e0"><rect x="0" width="163" y="0" height="302"/></clipPath></defs><g mask="url(#1091cdbc8b)"><g transform="matrix(1, 0, 0, 1, 106, 37)"><g clip-path="url(#ec559972e0)"><g clip-path="url(#d0e51965ab)"><path fill="#d43d3d" d="M 81.871094 174.394531 C 88.453125 209.3125 85.242188 216.738281 88.167969 218.335938 C 88.269531 218.863281 88.785156 219.214844 89.308594 219.109375 C 89.839844 219.007812 90.1875 218.496094 90.082031 217.96875 C 90.027344 217.664062 84.039062 188.382812 82.722656 163.777344 C 82.695312 163.257812 82.496094 161.925781 81.976562 161.925781 C 81.976562 161.925781 81.976562 161.925781 81.972656 161.925781 C 81.453125 161.925781 81.027344 162.339844 81.003906 162.859375 C 80.789062 167.769531 79.839844 175.476562 78.625 183.722656 C 78.285156 186.058594 76.863281 189.773438 76.488281 192.140625 C 75.945312 195.582031 76.433594 197.671875 75.878906 200.921875 C 74.292969 210.226562 72.800781 218.09375 72.183594 220.820312 C 72.148438 220.964844 71.308594 224.40625 72.867188 226.625 C 73.457031 227.464844 74.289062 228.015625 75.34375 228.265625 C 75.816406 230.445312 77.242188 232.011719 79.179688 232.421875 C 79.511719 232.492188 79.851562 232.527344 80.1875 232.527344 C 82.316406 232.527344 85.550781 232.136719 86.128906 228.625 C 87.707031 229.109375 89.402344 228.839844 90.476562 227.875 C 91.214844 227.214844 92.289062 225.664062 91.191406 222.71875 C 91.003906 222.210938 90.441406 221.957031 89.933594 222.144531 C 89.429688 222.332031 89.171875 222.894531 89.359375 223.398438 C 89.875 224.777344 89.808594 225.851562 89.171875 226.421875 C 88.5625 226.96875 87.46875 227.058594 86.476562 226.675781 C 85.839844 225.101562 83.121094 217.375 82.765625 199.59375 C 82.753906 199.074219 82.339844 198.652344 81.820312 198.636719 C 81.808594 198.636719 81.800781 198.636719 81.789062 198.636719 C 81.28125 198.636719 80.859375 199.023438 80.816406 199.53125 C 79.355469 217.277344 76.566406 224.417969 75.660156 226.324219 C 75.148438 226.175781 74.75 225.90625 74.46875 225.503906 C 73.601562 224.273438 73.894531 222.050781 74.085938 221.273438 C 75.285156 215.964844 79.753906 191.445312 81.871094 174.394531 Z M 81.453125 211.253906 C 82.390625 221.070312 84.035156 225.855469 84.632812 227.339844 C 82.917969 228.371094 82.117188 229.703125 80.8125 229.421875 C 79.585938 229.164062 78.027344 228.585938 77.765625 227.042969 C 78.398438 225.847656 79.839844 221.992188 81.453125 211.253906 Z M 162.070312 44.605469 C 161.019531 20.164062 160.222656 17.941406 155.765625 20.164062 C 155.757812 20.167969 155.75 20.164062 155.746094 20.164062 C 155.738281 20.164062 155.730469 20.164062 155.726562 20.164062 C 153.964844 20.175781 151.421875 20.90625 149.503906 26.902344 C 147.539062 33.046875 137.703125 83.503906 130.558594 102.449219 C 127.90625 116.433594 129.585938 145.894531 129.585938 146.179688 C 129.585938 146.21875 129.589844 146.257812 129.59375 146.300781 C 130.0625 150.109375 126.492188 163.695312 121.976562 180.898438 C 119.039062 192.078125 115.710938 204.75 112.40625 218.652344 C 110.402344 227.089844 108.414062 234.550781 106.539062 241.039062 C 104.5625 247.886719 102.394531 249.679688 100.976562 254.40625 C 98.261719 263.445312 97.949219 270.070312 95.410156 273.296875 C 95.175781 273.785156 94.273438 275.863281 94.761719 276.097656 C 95.246094 276.332031 95.828125 276.128906 96.0625 275.640625 C 96.15625 275.445312 105.660156 255.496094 114.308594 219.105469 C 117.605469 205.226562 120.929688 192.5625 123.863281 181.394531 C 128.765625 162.726562 133.054688 147.875 132.582031 143.632812 C 132.585938 142.199219 131.667969 117.558594 134.230469 104.054688 C 136.847656 90.25 149.457031 33.449219 151.363281 27.496094 C 152.328125 24.488281 153.359375 23.164062 154.210938 22.578125 C 152.554688 27.542969 150.859375 35.351562 147.058594 52.894531 C 145.410156 60.496094 143.363281 69.960938 140.757812 81.753906 C 138.375 92.527344 136.460938 102.210938 134.898438 111.34375 C 134.804688 111.882812 135.128906 112.4375 135.667969 112.539062 C 135.726562 112.550781 135.789062 112.554688 135.847656 112.554688 C 136.316406 112.554688 136.460938 111.195312 136.542969 110.71875 C 137.085938 107.546875 138.054688 105.347656 138.289062 102.117188 C 138.953125 92.9375 141.109375 89.199219 142.664062 82.175781 C 145.269531 70.378906 147.320312 60.914062 148.96875 53.308594 C 150.4375 46.535156 151.441406 39.460938 152.414062 35.140625 C 153.628906 29.746094 154.472656 27.101562 155.597656 24.988281 C 156.0625 24.113281 157.371094 24.289062 157.570312 25.257812 C 158.109375 27.933594 158.535156 33.484375 159.035156 45.113281 C 159.273438 50.710938 160.304688 57.316406 160.046875 64.847656 C 159.246094 88.148438 156.527344 116.230469 154.742188 121.292969 C 151.253906 131.1875 144.417969 137.910156 140.335938 141.929688 C 138.546875 143.6875 137.363281 144.851562 136.945312 145.777344 C 135.628906 148.671875 125.226562 223.917969 123.53125 242.78125 C 122.300781 256.484375 122.914062 272.964844 120.144531 280.445312 C 120.042969 282.648438 121 284.4375 120.9375 285.554688 C 120.449219 285.378906 120.191406 284.800781 119.636719 284.667969 C 116.183594 283.851562 117.214844 267.222656 118.53125 250.121094 C 119.128906 242.390625 119.804688 233.625 120.148438 224.550781 C 120.167969 224.046875 119.804688 223.613281 119.304688 223.542969 C 118.804688 223.480469 118.960938 224.53125 118.84375 225.019531 C 117.289062 231.511719 114.902344 239.015625 112.246094 246.363281 C 110.542969 251.085938 108.726562 255.742188 106.953125 260.027344 C 102.445312 270.910156 98.203125 279.386719 96.699219 280.410156 C 94.867188 280.195312 94.714844 278.195312 94.707031 277.96875 C 94.6875 277.539062 94.394531 277.171875 93.984375 277.0625 C 93.574219 276.949219 93.132812 277.121094 92.902344 277.484375 C 89.011719 279.550781 89.546875 283.210938 90.425781 285.429688 C 90.722656 286.183594 92.039062 286.707031 92.71875 287.082031 C 92.46875 288.796875 93.019531 290.511719 94.277344 291.804688 C 95.230469 292.789062 96.441406 293.367188 97.578125 293.417969 C 98.5 296.992188 100.664062 297.105469 100.925781 297.105469 C 101.464844 297.105469 101.925781 296.667969 101.925781 296.128906 C 101.925781 295.589844 101.515625 295.152344 100.976562 295.152344 C 100.964844 295.152344 99.792969 294.984375 99.3125 292.199219 C 99.265625 291.925781 99.105469 291.6875 98.871094 291.539062 C 98.636719 291.390625 98.351562 291.351562 98.089844 291.425781 C 97.410156 291.613281 96.417969 291.210938 95.675781 290.445312 C 95.214844 289.96875 94.199219 288.65625 94.78125 286.777344 C 94.863281 286.523438 94.832031 286.246094 94.703125 286.011719 C 94.574219 285.777344 94.355469 285.609375 94.09375 285.542969 C 93.566406 285.40625 93.238281 285.125 93.050781 284.65625 C 92.664062 283.675781 92.949219 282.0625 93.542969 280.542969 C 94.011719 281.273438 94.726562 281.910156 95.761719 282.207031 C 95.75 283.4375 95.9375 285.640625 97.265625 287.320312 C 98.097656 288.367188 99.226562 289.042969 100.628906 289.335938 C 100.957031 291.574219 102.574219 293.441406 104.777344 294.019531 C 105.21875 294.136719 105.839844 294.652344 106.265625 294.652344 C 107.777344 294.652344 109.453125 294.320312 109.953125 292.179688 C 111.152344 292.441406 112.535156 292.25 113.863281 291.621094 C 115.882812 290.65625 117.71875 289.746094 118.761719 287.339844 C 119.386719 287.917969 119.929688 287.347656 120.738281 287.550781 C 120.425781 289.222656 119.652344 290.839844 118.265625 290.839844 C 117.890625 290.839844 117.546875 291.058594 117.386719 291.394531 C 117.367188 291.429688 115.582031 295.023438 111.960938 295.449219 C 111.757812 295.472656 111.558594 295.554688 111.402344 295.691406 C 109.152344 297.679688 107.285156 298.957031 103.765625 297.351562 C 103.230469 297.105469 102.585938 297.390625 102.417969 297.984375 C 102.289062 298.449219 102.554688 298.945312 102.996094 299.144531 C 104.371094 299.769531 105.589844 300.019531 106.671875 300.019531 C 109.304688 300.019531 111.125 298.535156 112.472656 297.351562 C 116.109375 296.792969 118.160156 293.929688 118.867188 292.746094 C 121.015625 292.402344 122.503906 290.195312 122.8125 286.816406 C 122.878906 286.058594 123.425781 282.859375 123.582031 279.550781 C 123.835938 274.074219 124.042969 265.949219 124.5 257.15625 C 124.742188 252.511719 126.699219 249.050781 127.125 244.324219 C 127.515625 239.949219 126.710938 231.449219 127.792969 222.996094 C 131.53125 193.761719 138.140625 148.660156 139.007812 146.492188 C 139.28125 145.894531 140.25 144.75 141.703125 143.320312 C 145.910156 139.183594 153.761719 131.878906 157.402344 121.5625 C 159.800781 114.75 163.0625 67.667969 162.070312 44.605469 Z M 103.96875 292.234375 C 102.6875 291.898438 102.628906 290.574219 102.539062 288.679688 C 103.234375 287.261719 107.863281 278.253906 109.988281 272.964844 C 108.382812 284.972656 108.488281 289.398438 108.550781 290.777344 C 107.453125 292.476562 104.601562 292.402344 103.96875 292.234375 Z M 113.023438 289.855469 C 112.144531 290.273438 111.242188 290.421875 110.488281 290.292969 C 112.5 288.644531 107.734375 284.101562 113.683594 260.484375 C 113.773438 259.972656 113.441406 259.476562 112.929688 259.367188 C 112.417969 259.253906 110.859375 260.550781 110.726562 261.054688 C 109.644531 265.152344 109.203125 270.796875 107.734375 274.792969 C 105.351562 281.265625 101.917969 285.496094 100.988281 287.398438 C 100.0625 287.199219 99.335938 286.785156 98.804688 286.113281 C 97.769531 284.820312 97.691406 282.949219 97.722656 282.046875 C 99.082031 281.046875 101.863281 277.046875 108.082031 261.355469 C 109.179688 258.585938 110.332031 255.84375 111.363281 253.023438 C 113.832031 246.296875 115.988281 239.5 117.753906 233.519531 C 117.410156 239.3125 116.980469 244.867188 116.585938 249.972656 C 115.804688 260.082031 115.601562 267.898438 115.851562 274.292969 C 115.957031 276.996094 115.769531 280.050781 116.257812 281.9375 C 116.511719 282.914062 116.824219 283.773438 117.207031 284.511719 C 116.40625 287.023438 114.902344 288.960938 113.023438 289.855469 Z M 92.933594 230.492188 C 93.683594 230.152344 94.546875 229.488281 95.261719 228.515625 C 96.5 226.828125 98.597656 222.214844 97.070312 217.292969 C 95.523438 210.746094 93.140625 194.910156 90.203125 173.582031 C 88.828125 163.578125 89.511719 154.652344 88.679688 144.164062 C 88.570312 142.789062 87.625 140.886719 87.519531 139.523438 C 85.746094 116.558594 84.535156 95.535156 84.710938 86.953125 C 84.742188 85.371094 85.527344 81.957031 86.714844 79.792969 C 88.707031 76.160156 92.085938 73.347656 96.761719 68.921875 C 97.15625 68.550781 97.171875 67.933594 96.800781 67.542969 C 96.429688 67.148438 95.402344 67.523438 95.011719 67.894531 C 84.257812 78.335938 80.246094 82.6875 82.757812 86.914062 C 82.539062 97.667969 85 128.515625 87.515625 157.710938 C 89.859375 184.894531 92.1875 210.566406 94.230469 219.339844 C 94.238281 219.363281 94.242188 219.390625 94.25 219.410156 C 96.464844 224.4375 94.734375 225.746094 93.890625 227.0625 C 93.113281 228.28125 92.125 228.773438 91.898438 228.804688 C 91.613281 228.804688 91.34375 228.929688 91.160156 229.144531 C 90.972656 229.359375 90.890625 229.644531 90.933594 229.925781 C 91.125 231.195312 90.707031 232.355469 89.699219 233.375 C 88.453125 234.628906 86.78125 235.144531 86.230469 235.058594 C 85.972656 235.023438 85.710938 235.089844 85.503906 235.246094 C 85.296875 235.402344 85.160156 235.636719 85.125 235.890625 C 84.769531 238.4375 83.03125 238.976562 82.027344 239.070312 C 79.9375 239.261719 77.257812 237.9375 76.390625 235.375 C 76.300781 235.117188 76.105469 234.90625 75.855469 234.792969 C 75.601562 234.683594 75.316406 234.683594 75.066406 234.796875 C 74.207031 235.183594 73.058594 234.882812 72.210938 234.058594 C 71.191406 233.0625 70.917969 231.648438 71.488281 230.277344 C 71.609375 229.988281 71.582031 229.652344 71.414062 229.386719 C 71.246094 229.117188 70.960938 228.949219 70.644531 228.929688 C 69.792969 228.878906 69.855469 227.582031 69.398438 226.929688 C 68.210938 225.234375 67.738281 222.886719 68.492188 220.371094 C 68.648438 219.851562 68.355469 219.308594 67.839844 219.152344 C 67.324219 219.003906 66.777344 219.292969 66.621094 219.808594 C 65.800781 222.5625 64.765625 227.035156 66.4375 229.421875 C 67.003906 230.230469 68.042969 231.085938 69.34375 230.664062 C 69.003906 232.421875 69.539062 234.179688 70.851562 235.457031 C 72.007812 236.589844 73.515625 237.09375 74.894531 236.867188 C 76.257812 239.652344 79.160156 241.039062 81.625 241.039062 C 81.824219 241.039062 82.019531 241.03125 82.210938 241.011719 C 84.585938 240.789062 86.292969 239.300781 86.898438 236.980469 C 88.25 236.785156 90.5 236.492188 91.660156 235.324219 C 92.886719 234.085938 92.941406 232.058594 92.933594 230.492188 Z M 75.269531 88.769531 C 75.277344 89.550781 76.855469 94.242188 76.742188 104.503906 C 76.542969 122.375 76.003906 149.066406 74.582031 165.238281 C 72.644531 187.296875 68.234375 213.109375 67.335938 216.703125 C 67.207031 217.226562 67.523438 217.753906 68.046875 217.886719 C 68.128906 217.90625 68.207031 217.914062 68.285156 217.914062 C 68.722656 217.914062 68.820312 216.902344 68.929688 216.460938 C 69.722656 213.285156 72.820312 197.832031 74.9375 180.40625 C 75.542969 175.417969 76.09375 170.328125 76.527344 165.410156 C 78.773438 139.863281 78.367188 89.074219 78.347656 86.925781 C 78.269531 77.671875 73.101562 73.53125 66.558594 68.28125 C 65.5 67.429688 63.710938 66.660156 62.585938 65.722656 C 55.285156 59.613281 54.492188 45.496094 59.40625 29.054688 C 59.863281 27.523438 60.363281 26.054688 60.898438 24.652344 C 61.910156 22.011719 63.546875 21.039062 64.496094 18.71875 C 66.074219 14.867188 64.578125 15.449219 69.152344 10.382812 C 73.367188 5.71875 77.714844 2.992188 81.457031 2.667969 C 88.613281 2.058594 96.554688 12.214844 100.785156 27.398438 C 103.769531 38.117188 106.6875 49.601562 99.566406 61.652344 C 99.289062 62.113281 98.617188 63.808594 99.078125 64.082031 C 99.546875 64.359375 100.144531 64.203125 100.417969 63.738281 C 107.914062 51.0625 108.789062 44.617188 102.667969 26.875 C 98.875 13.261719 90.785156 -0.101562 81.285156 0.722656 C 71.945312 1.535156 62.179688 12.953125 57.535156 28.496094 C 52.394531 45.695312 53.015625 60.757812 60.921875 67.375 C 62.0625 68.328125 63.191406 68.9375 64.257812 69.792969 C 70.636719 74.90625 78.816406 78.574219 75.269531 88.769531 Z M 100.273438 47.808594 C 99.746094 47.707031 99.417969 49.402344 99.316406 49.933594 C 99.296875 50.042969 96.890625 59.804688 88.003906 67.472656 C 87.59375 67.824219 87.550781 68.441406 87.902344 68.851562 C 88.09375 69.074219 87.824219 69.792969 88.097656 69.792969 C 88.324219 69.792969 88.550781 69.714844 88.734375 69.554688 C 98.152344 61.429688 100.957031 49.429688 101.050781 48.949219 C 101.152344 48.417969 100.804688 47.910156 100.273438 47.808594 Z M 76.957031 7.722656 C 76.671875 7.265625 76.070312 7.121094 75.613281 7.40625 C 75.386719 7.546875 69.792969 11.835938 67.339844 17.691406 C 67.128906 18.1875 67.152344 18.5 67.652344 18.710938 C 67.773438 18.761719 68.300781 18.605469 68.425781 18.605469 C 68.808594 18.605469 70.027344 18.328125 70.148438 17.941406 C 71.949219 12.070312 72.132812 10.597656 76.375 8.925781 C 76.816406 8.617188 77.238281 8.179688 76.957031 7.722656 Z M 12.164062 104.859375 C 11.585938 104.921875 10.699219 104.804688 10.605469 104.226562 C 10.484375 103.453125 10.082031 99.703125 9.597656 94.917969 C 9.308594 92.066406 8.683594 89.894531 8.378906 86.71875 C 7.917969 81.894531 7.789062 76.117188 7.535156 72.910156 C 7.492188 72.371094 7.246094 71.144531 6.714844 71.191406 C 6.179688 71.234375 5.777344 71.703125 5.820312 72.242188 C 6.148438 76.375 5.585938 81.839844 6.46875 88.769531 C 7.433594 96.355469 8.515625 103.5 8.679688 104.53125 C 8.898438 105.933594 10.167969 106.832031 11.84375 106.832031 C 12.015625 106.832031 12.191406 106.820312 12.375 106.800781 C 14.25 106.597656 15.546875 105.402344 15.464844 103.957031 C 15.34375 101.925781 12.609375 70.007812 12.3125 66.730469 C 12.234375 65.886719 12.765625 65.273438 13.304688 65.191406 C 13.886719 65.101562 14.386719 65.695312 14.625 66.785156 C 15.074219 68.835938 16.25 79.015625 17.289062 87.996094 C 18.351562 97.1875 19.011719 102.863281 19.246094 103.679688 C 19.691406 105.238281 21.855469 105.988281 23.601562 105.710938 C 25.375 105.429688 26.753906 104.871094 26.6875 103.113281 C 26.59375 100.527344 23.113281 81.167969 21.503906 71.039062 C 21 67.867188 21.289062 66.117188 21.140625 65.40625 C 20.972656 64.605469 21.34375 64.136719 21.582031 63.929688 C 21.902344 63.652344 22.332031 63.53125 22.636719 63.640625 C 22.875 63.726562 23.03125 63.96875 23.097656 64.367188 C 23.179688 64.855469 22.84375 67.445312 23.417969 70.375 C 23.824219 72.429688 25.050781 74.378906 25.582031 77.042969 C 27.710938 87.722656 30.488281 101.382812 30.894531 102.527344 C 31.417969 103.992188 33.308594 104.507812 34.753906 104.144531 C 36.480469 103.714844 37.417969 102.234375 37.144531 100.371094 C 37.0625 99.839844 36.5625 99.46875 36.035156 99.550781 C 35.5 99.628906 35.558594 99.867188 35.636719 100.402344 C 35.765625 101.273438 35.050781 102.292969 34.304688 102.476562 C 33.566406 102.660156 33.003906 102.671875 32.40625 101.730469 C 31.304688 99.996094 25.582031 67.328125 25.023438 64.039062 C 24.835938 62.945312 24.207031 62.128906 23.292969 61.800781 C 22.328125 61.457031 21.152344 61.714844 20.300781 62.457031 C 19.363281 63.273438 18.960938 64.527344 19.226562 65.804688 C 19.746094 68.304688 24.292969 99.136719 24.417969 102.476562 C 24.433594 102.957031 24.339844 103.617188 23.296875 103.78125 C 22.214844 103.957031 20.984375 102.078125 20.90625 101.804688 C 20.703125 101.066406 20.019531 94.632812 19.226562 87.773438 C 16.769531 75.695312 18.765625 71.707031 16.535156 66.367188 C 15.960938 63.757812 14.273438 63.0625 13.007812 63.257812 C 11.566406 63.480469 10.183594 64.90625 10.367188 66.90625 C 10.652344 70.058594 14.339844 101.519531 14.253906 103.449219 C 14.195312 104.667969 12.902344 104.78125 12.164062 104.859375 Z M 63.25 271.96875 C 56.148438 262.660156 50.632812 245.308594 45.738281 220.867188 C 44.695312 215.664062 43.453125 211.335938 42.503906 206.101562 C 41.324219 199.589844 40.460938 192.1875 39.449219 186 C 38.472656 180.058594 37.582031 174.359375 36.785156 169.089844 C 35.550781 160.9375 36.125 154.003906 35.386719 148.597656 C 34.703125 143.636719 32.667969 139.933594 32.46875 138.390625 C 44.386719 139.097656 45.34375 113.585938 43.324219 102.070312 C 40.835938 87.878906 35.996094 66.007812 34.648438 62.914062 C 33.761719 60.878906 31.859375 60.414062 30.460938 60.839844 C 29.039062 61.277344 28.1875 62.542969 28.433594 63.847656 C 28.484375 64.128906 28.664062 65.070312 28.933594 66.484375 C 30.101562 72.613281 34.277344 90.429688 33.832031 96.632812 C 33.929688 97.164062 35.273438 97.863281 35.804688 97.765625 C 36.335938 97.671875 36.6875 97.164062 36.59375 96.632812 C 35.128906 88.535156 31.597656 73.503906 30.429688 67.375 C 30.160156 65.964844 30.402344 63.769531 30.351562 63.488281 C 30.269531 63.0625 30.761719 62.792969 31.03125 62.707031 C 31.628906 62.527344 32.421875 62.6875 32.859375 63.695312 C 33.785156 65.828125 37.734375 81.152344 40.15625 94.597656 C 40.640625 97.289062 41.363281 99.695312 41.6875 102.117188 C 41.992188 104.386719 41.960938 106.847656 42.164062 109.050781 C 43.410156 122.683594 42.101562 134.445312 31.195312 136.683594 C 30.695312 136.785156 30.359375 137.253906 30.421875 137.757812 C 30.464844 138.105469 33.9375 165.925781 39.359375 197.226562 C 40.730469 205.140625 42.226562 213.277344 43.824219 221.25 C 48.75 245.859375 56.335938 265.113281 59.980469 274.367188 C 61.074219 277.144531 61.867188 279.152344 62.066406 279.988281 C 62.574219 282.132812 62.265625 284.378906 61.289062 285.570312 C 60.863281 286.09375 60.355469 286.347656 59.773438 286.328125 C 59.453125 286.304688 59.113281 286.484375 58.925781 286.769531 C 58.738281 287.054688 58.714844 287.417969 58.863281 287.726562 C 59.269531 288.578125 58.875 291.890625 57.484375 293.566406 C 56.792969 294.398438 56.21875 294.363281 55.847656 294.265625 C 55.578125 294.195312 55.285156 294.242188 55.050781 294.402344 C 54.816406 294.558594 54.664062 294.808594 54.628906 295.089844 C 54.351562 297.339844 53.210938 298.710938 51.328125 299.058594 C 49.019531 299.480469 46.40625 298.265625 45.703125 296.933594 C 45.511719 296.574219 45.117188 296.363281 44.710938 296.421875 C 42.4375 296.722656 40.410156 294.804688 39.800781 291.746094 C 39.699219 291.246094 39.230469 290.910156 38.722656 290.96875 C 37.507812 291.121094 36.265625 290.714844 35.394531 289.882812 C 34.335938 288.875 33.855469 287.347656 34 285.472656 C 34.15625 283.464844 34.425781 277.863281 34.554688 269.808594 C 34.742188 258.007812 34.621094 240.941406 33.382812 222.207031 C 31.96875 200.785156 26.242188 139.078125 26.183594 138.457031 C 26.160156 138.175781 26.339844 137.125 24.417969 136.6875 C 24.367188 136.699219 19.953125 138.671875 14.933594 135.054688 C 11.777344 132.78125 8.859375 129.226562 7.105469 124.445312 C 5.777344 120.820312 5.308594 116.5 4.796875 111.480469 C 1.953125 83.4375 2.257812 76.464844 2.480469 72.257812 C 2.5 71.820312 3.183594 69.761719 3.171875 68.171875 C 3.210938 67.042969 3.5 66.515625 4.183594 66.503906 C 4.1875 66.503906 4.195312 66.503906 4.199219 66.503906 C 4.945312 66.503906 4.886719 68.035156 4.957031 69.128906 C 4.992188 69.667969 5.535156 69.300781 6.085938 69.265625 C 6.625 69.230469 7.5 68.6875 7.464844 68.148438 C 7.308594 65.660156 5.71875 64.550781 4.199219 64.550781 C 4.183594 64.550781 4.171875 64.550781 4.15625 64.550781 C 2.589844 64.574219 0.875 65.851562 0.792969 68.175781 C 0.78125 68.488281 0.761719 68.851562 0.738281 69.277344 C 0.515625 73.53125 -0.00390625 83.484375 2.855469 111.675781 C 3.476562 126.882812 6.550781 128.714844 13.789062 136.640625 C 18.101562 139.746094 22.378906 139.828125 24.335938 139.652344 C 24.832031 145.046875 27.207031 170.820312 29.136719 193.398438 C 32.40625 211.75 29.84375 214.191406 30.289062 220.910156 C 30.609375 225.796875 32.003906 231.988281 32.1875 236.578125 C 32.566406 245.957031 32.6875 254.585938 32.671875 261.929688 C 32.660156 267.632812 31.957031 272.8125 31.839844 276.703125 C 31.710938 281.117188 31.03125 284.46875 30.925781 285.847656 C 30.738281 288.292969 31.777344 290.828125 33.253906 292.234375 C 34.351562 293.28125 36.582031 292.925781 38.085938 292.953125 C 37.496094 296.953125 41.894531 299.667969 44.25 298.40625 C 44.277344 298.394531 44.308594 298.40625 44.335938 298.40625 C 45.546875 300.003906 48.046875 301.089844 50.410156 301.089844 C 50.839844 301.089844 51.269531 301.054688 51.683594 300.980469 C 54.121094 300.53125 55.804688 298.832031 56.402344 296.261719 C 57.351562 296.199219 58.246094 295.707031 58.988281 294.8125 C 60.449219 293.054688 61.132812 290.082031 60.933594 288.113281 C 61.640625 287.890625 62.28125 287.445312 62.800781 286.808594 C 64.164062 285.140625 64.621094 282.285156 63.964844 279.535156 C 63.734375 278.566406 64.417969 274.929688 63.25 271.96875 Z M 37.503906 283.28125 C 37.394531 285.222656 38.25 287.09375 39.683594 288.042969 C 40.65625 288.6875 41.789062 288.863281 42.960938 288.566406 C 43.992188 291.199219 46.21875 293.636719 48.59375 293.636719 C 48.667969 293.636719 48.746094 293.636719 48.820312 293.632812 C 50.234375 293.539062 51.792969 293.457031 52.59375 289.546875 C 53.652344 289.800781 55.261719 289.761719 56.148438 289.085938 C 58.0625 287.628906 58.601562 283.121094 57.84375 280.191406 C 57.4375 278.558594 56.167969 275.003906 54.414062 270.085938 C 50.53125 259.191406 43.933594 242.160156 39.820312 224.933594 C 39.703125 224.445312 39.320312 222.925781 38.824219 223 C 38.324219 223.074219 37.960938 223.515625 37.988281 224.019531 C 38.742188 237.789062 39.285156 259.042969 37.585938 282.132812 C 37.542969 282.683594 37.515625 283.070312 37.503906 283.28125 Z M 48.691406 291.683594 C 48.660156 291.683594 48.628906 291.683594 48.597656 291.683594 C 47.160156 291.683594 45.257812 289.574219 44.558594 287.214844 C 44.734375 285.617188 45.78125 275.800781 45.960938 267.414062 C 50.371094 278.671875 50.785156 286.242188 51.054688 287.34375 C 50.667969 290.027344 49.8125 291.609375 48.691406 291.683594 Z M 39.53125 282.277344 C 40.890625 263.808594 40.824219 246.511719 40.355469 233.25 C 44.339844 247.644531 49.355469 261.707031 52.574219 270.742188 C 54.3125 275.609375 55.566406 279.125 55.949219 280.671875 C 56.5 282.792969 55.863281 285.503906 54.597656 286.472656 C 54.09375 286.851562 53.535156 286.902344 52.890625 286.632812 C 52.410156 284.6875 50.300781 276.1875 45.601562 258.339844 C 45.472656 257.835938 44.972656 257.527344 44.460938 257.628906 C 43.953125 257.734375 43.617188 258.21875 43.691406 258.730469 C 44.757812 265.90625 43.019531 283.238281 42.660156 286.617188 C 41.953125 286.847656 41.316406 286.78125 40.761719 286.414062 C 39.910156 285.851562 39.382812 284.632812 39.453125 283.390625 C 39.464844 283.183594 39.492188 282.8125 39.53125 282.277344 Z M 13.210938 124.242188 C 13.003906 123.742188 12.433594 123.507812 11.9375 123.710938 C 11.4375 123.917969 11.199219 124.488281 11.40625 124.984375 C 11.550781 125.339844 15.085938 133.71875 23.246094 135.503906 C 23.316406 135.519531 23.386719 135.527344 23.457031 135.527344 C 23.90625 135.527344 24.308594 135.214844 24.410156 134.757812 C 24.523438 134.230469 23.308594 133.921875 22.785156 133.804688 C 15.636719 132.242188 13.242188 124.320312 13.210938 124.242188 Z M 13.210938 124.242188 " fill-opacity="1" fill-rule="nonzero"/></g></g></g></g></svg>