<svg xmlns="http://www.w3.org/2000/svg" xmlns:xlink="http://www.w3.org/1999/xlink" width="500" zoomAndPan="magnify" viewBox="0 0 375 374.999991" height="500" preserveAspectRatio="xMidYMid meet" version="1.0"><defs><filter x="0%" y="0%" width="100%" height="100%" id="9cabb89a6c"><feColorMatrix values="0 0 0 0 1 0 0 0 0 1 0 0 0 0 1 0 0 0 1 0" color-interpolation-filters="sRGB"/></filter><mask id="40407ab662"><g filter="url(#9cabb89a6c)"><rect x="-37.5" width="450" fill="#000000" y="-37.499999" height="449.999989" fill-opacity="0.23"/></g></mask><clipPath id="dd9c9a7b1f"><path d="M 35 41 L 331 41 L 331 236 L 35 236 Z M 35 41 " clip-rule="nonzero"/></clipPath><clipPath id="c3de86f454"><path d="M 53.175781 0.878906 L 348.835938 85.378906 L 296.074219 269.988281 L 0.414062 185.488281 Z M 53.175781 0.878906 " clip-rule="nonzero"/></clipPath><clipPath id="b8303f1410"><path d="M 53.175781 0.878906 L 348.835938 85.378906 L 296.074219 269.988281 L 0.414062 185.488281 Z M 53.175781 0.878906 " clip-rule="nonzero"/></clipPath><clipPath id="2b8e0ef9cd"><rect x="0" width="349" y="0" height="270"/></clipPath></defs><g mask="url(#40407ab662)"><g transform="matrix(1, 0, 0, 1, 13, 52)"><g clip-path="url(#2b8e0ef9cd)"><g clip-path="url(#dd9c9a7b1f)"><g clip-path="url(#c3de86f454)"><g clip-path="url(#b8303f1410)"><path fill="#d43d3d" d="M 330.621094 147.855469 C 330.78125 147.351562 330.835938 146.792969 330.769531 146.191406 C 330.574219 144.4375 329.964844 142.667969 329.398438 141 C 328.199219 137.492188 326.601562 134.109375 324.671875 130.941406 C 322.789062 127.855469 320.441406 125.320312 317.179688 123.683594 C 314.03125 122.101562 310.625 120.972656 307.285156 119.859375 C 300.527344 117.609375 293.652344 115.726562 286.863281 113.570312 C 286.097656 113.328125 285.339844 113.082031 284.578125 112.832031 C 284.238281 112.71875 283.964844 112.847656 283.808594 113.070312 C 281.605469 110.9375 279.339844 108.871094 277.007812 106.886719 C 260.503906 92.835938 241.160156 82.785156 221.347656 74.265625 C 215.875 71.914062 210.328125 69.734375 204.71875 67.734375 C 204.515625 67.664062 204.339844 67.683594 204.195312 67.753906 C 204.410156 67.265625 204.675781 66.792969 205.027344 66.402344 C 205.605469 65.753906 206.390625 65.578125 207.179688 65.296875 C 209.035156 64.628906 210.839844 63.78125 212.554688 62.808594 C 214.175781 61.890625 215.699219 60.78125 216.851562 59.300781 C 218.105469 57.6875 218.890625 55.578125 218.644531 53.519531 C 218.597656 53.148438 218.375 52.839844 217.996094 52.785156 C 218.140625 51.386719 216.601562 49.945312 215.558594 49.300781 C 214.957031 48.925781 214.269531 48.671875 213.625 48.375 C 212.816406 48.007812 212.007812 47.640625 211.195312 47.28125 C 209.675781 46.609375 208.148438 45.957031 206.601562 45.351562 C 203.390625 44.097656 200.105469 43.050781 196.726562 42.339844 C 196.683594 42.332031 196.644531 42.328125 196.601562 42.328125 C 194.09375 41.738281 191.550781 41.242188 188.972656 41.109375 C 187.59375 41.035156 186.214844 41.078125 184.84375 41.246094 C 183.710938 41.386719 182.300781 41.507812 181.464844 42.386719 C 181.25 42.421875 181.054688 42.550781 180.90625 42.734375 C 178.46875 45.773438 179.207031 49.984375 180.832031 53.199219 C 181.707031 54.9375 182.769531 56.597656 183.933594 58.160156 C 184.449219 58.851562 185.230469 59.539062 185.53125 60.359375 C 185.695312 60.8125 185.730469 61.308594 185.707031 61.796875 C 165.464844 56.34375 144.273438 52.992188 123.273438 53.738281 C 113.089844 54.101562 102.921875 55.484375 93.066406 58.101562 C 93.0625 58.097656 93.054688 58.09375 93.050781 58.09375 C 86.195312 56.4375 79.433594 54.414062 72.59375 52.6875 C 69.238281 51.839844 65.859375 51.046875 62.445312 50.464844 C 60.605469 50.148438 58.726562 49.898438 56.855469 50.023438 C 55.074219 50.148438 53.359375 50.59375 51.707031 51.253906 C 48.378906 52.585938 45.222656 54.511719 42.332031 56.617188 C 40.859375 57.695312 39.4375 58.839844 38.09375 60.078125 C 37.050781 61.042969 35.675781 62.191406 35.375 63.65625 C 35.367188 63.671875 35.359375 63.683594 35.355469 63.703125 C 34.378906 66.789062 37.160156 69.714844 39.148438 71.699219 C 41.957031 74.5 44.898438 77.191406 48.128906 79.503906 C 49.816406 80.710938 51.558594 81.84375 53.339844 82.910156 C 54.945312 83.871094 56.578125 84.878906 58.296875 85.617188 C 60.445312 86.539062 63.921875 87.046875 64.808594 89.574219 C 65.476562 91.488281 65.023438 93.621094 65.746094 95.542969 C 66.304688 97.035156 67.308594 98.316406 68.617188 99.207031 C 66.097656 110.300781 63.578125 121.394531 61.058594 132.492188 C 59.390625 139.851562 57.6875 147.203125 56.046875 154.570312 C 54.015625 163.691406 56.097656 173.300781 61.78125 180.726562 C 64.265625 183.976562 67.417969 186.441406 70.675781 188.859375 C 73.230469 190.757812 75.828125 192.601562 78.464844 194.390625 C 92.285156 203.773438 107.113281 211.664062 122.582031 217.96875 C 142.789062 226.207031 164.109375 231.632812 185.796875 234.066406 C 198.4375 235.484375 211.183594 235.882812 223.890625 235.304688 C 227.285156 235.148438 230.675781 234.925781 234.0625 234.632812 C 236.859375 234.390625 239.660156 234.167969 242.390625 233.472656 C 247.152344 232.257812 251.601562 229.914062 255.304688 226.691406 C 259.621094 222.9375 262.453125 218.183594 264.503906 212.921875 C 265.875 209.410156 267.242188 205.898438 268.613281 202.386719 C 273.363281 190.207031 278.113281 178.023438 282.863281 165.84375 C 283.636719 163.859375 284.410156 161.871094 285.183594 159.886719 C 286.070312 159.957031 287.234375 159.605469 287.699219 159.351562 C 289.160156 158.546875 290.03125 157.140625 290.972656 155.820312 C 291.386719 155.242188 291.910156 154.421875 292.585938 154.128906 C 293.128906 153.890625 293.804688 153.964844 294.375 154.046875 C 295.003906 154.136719 295.625 154.296875 296.253906 154.40625 C 297.109375 154.554688 297.976562 154.625 298.839844 154.703125 C 302.832031 155.058594 306.835938 155.054688 310.832031 154.789062 C 314.699219 154.535156 318.476562 153.878906 322.261719 153.0625 C 325.207031 152.429688 329.71875 151.511719 330.597656 148.082031 C 330.617188 148.003906 330.621094 147.925781 330.621094 147.855469 Z M 303.582031 120.234375 C 306.675781 121.210938 309.757812 122.242188 312.785156 123.414062 C 314.496094 124.074219 316.207031 124.765625 317.777344 125.71875 C 319.253906 126.613281 320.519531 127.769531 321.601562 129.113281 C 323.742188 131.765625 325.339844 134.976562 326.683594 138.09375 C 327.375 139.695312 327.96875 141.335938 328.46875 143.007812 C 328.695312 143.753906 328.898438 144.503906 329.082031 145.261719 C 329.28125 146.109375 329.578125 147.25 328.925781 147.980469 C 328.042969 148.960938 326.214844 148.917969 325.023438 148.933594 C 323.285156 148.949219 321.542969 148.894531 319.804688 148.859375 C 316.761719 148.792969 313.71875 148.695312 310.683594 148.496094 C 303.957031 148.058594 297.3125 147.011719 290.695312 145.757812 C 291.4375 143.859375 292.175781 141.957031 292.917969 140.058594 C 296.554688 140.714844 300.21875 141.203125 303.882812 141.679688 C 305.792969 141.925781 307.699219 142.179688 309.601562 142.453125 C 311.121094 142.671875 312.847656 142.921875 314.289062 142.230469 C 314.941406 141.917969 315.515625 141.351562 315.46875 140.578125 C 315.417969 139.714844 314.679688 138.824219 314.261719 138.101562 C 313.265625 136.363281 312.261719 134.625 311.226562 132.910156 C 310.28125 131.351562 309.363281 129.730469 308.207031 128.316406 C 307.070312 126.917969 305.605469 125.933594 303.972656 125.199219 C 300.320312 123.558594 296.386719 122.824219 292.625 121.503906 C 292.378906 121.417969 292.167969 121.464844 292.011719 121.578125 C 291.070312 120.488281 290.039062 119.488281 289.214844 118.59375 C 287.980469 117.261719 286.714844 115.960938 285.429688 114.675781 C 291.449219 116.621094 297.546875 118.328125 303.582031 120.234375 Z M 73.914062 75.863281 C 73.84375 75.789062 73.753906 75.730469 73.644531 75.6875 C 70.152344 74.304688 66.679688 72.886719 63.21875 71.433594 C 61.511719 70.714844 59.804688 69.988281 58.105469 69.25 C 56.707031 68.644531 55.015625 68.101562 53.917969 66.996094 C 53.761719 66.835938 53.476562 66.570312 53.441406 66.34375 C 53.394531 66.039062 53.367188 66.269531 53.582031 66.054688 C 53.699219 65.941406 53.914062 65.875 54.058594 65.796875 C 54.871094 65.359375 55.679688 64.921875 56.492188 64.488281 C 56.535156 64.464844 56.578125 64.441406 56.625 64.417969 C 62.773438 63.6875 68.859375 64.261719 74.707031 66.320312 C 74.019531 67.132812 73.269531 68.242188 73.714844 69.308594 C 74.03125 70.074219 74.636719 70.769531 75.246094 71.402344 C 75.046875 71.464844 74.878906 71.621094 74.816406 71.898438 C 74.515625 73.21875 74.214844 74.539062 73.914062 75.863281 Z M 78.625 62.910156 C 78.21875 63.121094 77.941406 63.414062 77.742188 63.75 C 77.042969 64.199219 76.367188 64.695312 75.753906 65.25 C 75.671875 65.132812 75.550781 65.035156 75.382812 64.972656 C 70.414062 63.179688 65.226562 62.4375 60 62.652344 C 60.46875 62.410156 60.9375 62.167969 61.410156 61.929688 C 62.820312 61.226562 64.242188 60.449219 65.765625 60.019531 C 67.394531 59.558594 69.066406 59.664062 70.714844 59.953125 C 73.839844 60.503906 76.828125 61.546875 79.890625 62.324219 C 79.460938 62.507812 79.035156 62.699219 78.625 62.910156 Z M 76.097656 70.082031 C 75.671875 69.59375 75.46875 69.339844 75.191406 68.910156 C 75.148438 68.839844 75.117188 68.757812 75.070312 68.6875 C 75.0625 68.671875 75.0625 68.675781 75.054688 68.667969 C 75.25 68.296875 75.359375 67.914062 75.617188 67.5625 C 76.117188 66.890625 76.753906 66.292969 77.449219 65.761719 C 77.488281 65.996094 77.539062 66.230469 77.613281 66.457031 C 78.722656 69.90625 81.730469 72.828125 84.382812 75.25 C 86.847656 77.503906 89.496094 79.566406 92.214844 81.515625 C 101.433594 88.125 111.546875 93.472656 121.851562 98.167969 C 138.707031 105.847656 156.339844 111.773438 174.191406 116.664062 C 194.4375 122.210938 215.074219 126.761719 235.785156 130.21875 C 247.210938 132.125 258.777344 133.71875 270.375 133.949219 C 275.8125 134.058594 281.203125 133.730469 286.585938 132.988281 C 286.996094 132.933594 287.40625 132.875 287.816406 132.820312 C 288 132.792969 288.183594 132.769531 288.367188 132.746094 C 288.597656 132.714844 288.800781 132.691406 288.804688 132.691406 C 289.730469 132.566406 290.726562 132.351562 291.59375 132.003906 C 293.25 131.34375 294.3125 129.675781 294.59375 127.960938 C 294.621094 127.796875 294.632812 127.632812 294.640625 127.46875 C 294.820312 127.746094 294.992188 128.027344 295.160156 128.316406 C 294.882812 128.703125 294.9375 129.320312 295.53125 129.449219 C 295.621094 129.46875 295.707031 129.488281 295.796875 129.507812 C 296.273438 130.484375 296.660156 131.503906 296.886719 132.570312 C 297 133.097656 297.074219 133.628906 297.066406 134.167969 C 297.066406 134.203125 297.0625 134.246094 297.054688 134.292969 C 296.152344 134.542969 295.230469 134.730469 294.3125 134.90625 C 291.003906 135.554688 287.648438 135.949219 284.289062 136.222656 C 278.515625 136.691406 272.714844 136.78125 266.925781 136.644531 C 258.5 136.445312 250.089844 135.75 241.722656 134.726562 C 230.4375 133.347656 219.230469 131.359375 208.121094 128.964844 C 193.914062 125.902344 179.828125 122.207031 165.929688 117.960938 C 152.34375 113.808594 139.023438 108.742188 126.171875 102.679688 C 116.355469 98.046875 106.789062 92.847656 97.664062 86.964844 C 91.648438 83.085938 85.742188 78.933594 80.355469 74.210938 C 78.871094 72.910156 77.398438 71.566406 76.097656 70.082031 Z M 293.703125 138.039062 C 293.894531 137.550781 294.085938 137.0625 294.277344 136.570312 C 294.292969 136.53125 294.300781 136.492188 294.308594 136.453125 C 295.476562 136.257812 296.652344 136.03125 297.746094 135.652344 C 297.808594 135.628906 297.878906 135.613281 297.945312 135.59375 C 298.1875 135.515625 298.417969 135.339844 298.476562 135.074219 C 298.839844 133.433594 298.4375 131.660156 297.722656 129.984375 C 303.015625 131.445312 307.839844 133.992188 312.160156 137.449219 C 312.382812 137.839844 312.609375 138.230469 312.835938 138.621094 C 313.054688 139.003906 313.273438 139.386719 313.492188 139.765625 C 313.589844 139.941406 313.691406 140.113281 313.789062 140.289062 C 313.929688 140.542969 314.023438 140.5625 313.847656 140.765625 C 313.488281 141.1875 312.488281 141.171875 312.003906 141.175781 C 311.269531 141.175781 310.539062 141.085938 309.8125 140.984375 C 308.0625 140.738281 306.308594 140.492188 304.554688 140.265625 C 300.847656 139.785156 297.148438 139.300781 293.46875 138.644531 C 293.546875 138.441406 293.625 138.242188 293.703125 138.039062 Z M 296.851562 128.21875 C 296.289062 127.214844 295.671875 126.285156 295.109375 125.488281 C 294.902344 125.191406 294.578125 125.113281 294.292969 125.171875 C 294.0625 124.535156 293.734375 123.917969 293.347656 123.324219 C 296.019531 124.179688 298.765625 124.804688 301.40625 125.773438 C 302.941406 126.335938 304.527344 126.960938 305.8125 128.007812 C 307.066406 129.03125 307.925781 130.421875 308.773438 131.777344 C 309.269531 132.570312 309.757812 133.371094 310.238281 134.171875 C 306.164062 131.398438 301.675781 129.367188 296.851562 128.21875 Z M 184.445312 42.804688 C 185.792969 42.589844 187.160156 42.539062 188.519531 42.585938 C 191.335938 42.6875 194.097656 43.257812 196.824219 43.914062 C 196.886719 43.929688 196.949219 43.9375 197.003906 43.9375 C 202.03125 45.070312 206.828125 46.941406 211.519531 49.050781 C 213.144531 49.785156 215.214844 50.378906 216.234375 51.972656 C 216.601562 52.546875 216.582031 52.902344 215.851562 53.066406 C 215.339844 53.179688 214.777344 53.070312 214.265625 52.996094 C 213.582031 52.898438 212.898438 52.789062 212.214844 52.675781 C 206.871094 51.804688 201.574219 50.640625 196.355469 49.195312 C 193.726562 48.464844 191.117188 47.667969 188.527344 46.796875 C 187.253906 46.367188 185.984375 45.921875 184.726562 45.457031 C 183.972656 45.179688 183.003906 44.792969 182.550781 44.085938 C 181.917969 43.105469 183.871094 42.894531 184.445312 42.804688 Z M 184.925781 57 C 184.316406 56.167969 183.753906 55.296875 183.21875 54.410156 C 182.269531 52.820312 181.378906 51.167969 180.996094 49.339844 C 180.6875 47.867188 180.773438 46.296875 181.355469 44.921875 C 181.988281 45.761719 183.121094 46.433594 183.941406 46.757812 C 186.78125 47.890625 189.734375 48.800781 192.65625 49.683594 C 198.582031 51.46875 204.621094 52.890625 210.722656 53.9375 C 212.15625 54.179688 213.621094 54.5 215.074219 54.59375 C 215.769531 54.640625 216.585938 54.515625 217.183594 54.105469 C 217.234375 56.78125 215.460938 59.09375 213.316406 60.574219 C 212.140625 61.386719 210.863281 62.054688 209.578125 62.671875 C 208.878906 63.007812 208.167969 63.324219 207.445312 63.605469 C 206.71875 63.886719 205.949219 64.078125 205.238281 64.402344 C 203.128906 65.367188 202.40625 68.003906 201.878906 70.054688 C 201.738281 70.589844 201.609375 71.132812 201.46875 71.667969 C 201.363281 72.066406 201.195312 72.449219 201.402344 72.84375 C 201.621094 73.269531 201.964844 73.667969 202.234375 74.066406 C 203.035156 75.238281 203.839844 76.40625 204.636719 77.582031 C 204.707031 77.6875 204.765625 77.796875 204.820312 77.90625 C 204.550781 77.902344 204.269531 78.027344 204.117188 78.277344 C 204.113281 78.277344 204.109375 78.277344 204.105469 78.277344 C 203.945312 78.273438 203.785156 78.269531 203.625 78.265625 C 203.304688 78.257812 202.984375 78.25 202.664062 78.238281 C 202.105469 78.222656 201.542969 78.207031 200.984375 78.1875 C 199.863281 78.144531 198.742188 78.089844 197.625 78.011719 C 195.273438 77.84375 192.925781 77.558594 190.628906 77.019531 C 186.546875 76.0625 182.597656 74.28125 179.617188 71.273438 C 179.925781 71.09375 180.265625 70.953125 180.59375 70.796875 C 182.300781 69.980469 183.996094 69.152344 185.6875 68.3125 C 186.171875 68.074219 186.15625 67.558594 185.898438 67.226562 C 186.277344 65.988281 186.71875 64.769531 186.980469 63.496094 C 187.265625 62.101562 187.40625 60.503906 186.644531 59.226562 C 186.167969 58.429688 185.472656 57.753906 184.925781 57 Z M 203.332031 81.132812 C 197.375 82.273438 191.011719 81.191406 185.546875 78.644531 C 184.007812 77.925781 182.519531 77.089844 181.105469 76.148438 C 180.078125 75.460938 178.539062 74.734375 178.488281 73.328125 C 178.476562 73.015625 178.535156 72.703125 178.640625 72.410156 C 184.226562 77.96875 192.332031 79.300781 199.890625 79.640625 C 201.050781 79.691406 202.210938 79.726562 203.371094 79.757812 C 203.945312 79.769531 204.605469 79.78125 205.039062 79.492188 C 204.875 80.28125 204.292969 80.949219 203.332031 81.132812 Z M 169.726562 59.574219 C 175.023438 60.644531 180.285156 61.882812 185.5 63.289062 C 185.210938 64.660156 184.6875 65.984375 184.300781 67.328125 C 183.378906 67.785156 182.457031 68.238281 181.53125 68.6875 C 180.519531 69.175781 179.335938 69.574219 178.433594 70.253906 C 177.199219 71.183594 176.671875 72.953125 177.179688 74.414062 C 177.472656 75.261719 178.046875 75.777344 178.746094 76.300781 C 179.683594 77.011719 180.664062 77.671875 181.671875 78.277344 C 183.632812 79.457031 185.71875 80.4375 187.875 81.199219 C 192.128906 82.707031 196.746094 83.382812 201.246094 82.929688 C 203.050781 82.746094 205.082031 82.660156 206.089844 80.914062 C 206.789062 79.707031 206.8125 78.175781 206.042969 77 C 205.007812 75.417969 203.914062 73.871094 202.84375 72.308594 C 203.171875 71.105469 203.4375 69.882812 203.839844 68.703125 C 203.90625 68.90625 204.054688 69.085938 204.308594 69.175781 C 215.015625 72.992188 225.488281 77.480469 235.710938 82.449219 C 245.191406 87.058594 254.433594 92.191406 263.132812 98.15625 C 272.046875 104.273438 280.34375 111.273438 287.71875 119.183594 C 289.238281 120.816406 290.976562 122.449219 292.144531 124.355469 C 293.042969 125.824219 293.5625 127.21875 292.75 128.910156 C 291.8125 130.863281 289.59375 131.089844 287.941406 131.304688 C 283.488281 131.878906 279.175781 132.386719 274.585938 132.460938 C 264.910156 132.617188 255.226562 131.582031 245.660156 130.238281 C 227.222656 127.648438 208.976562 123.695312 190.875 119.382812 C 171.46875 114.757812 152.25 109.097656 133.730469 101.640625 C 121.800781 96.835938 110.089844 91.289062 99.210938 84.414062 C 93.652344 80.902344 88.097656 77.050781 83.496094 72.3125 C 81.953125 70.726562 80.460938 68.992188 79.460938 67.015625 C 79.148438 66.398438 78.765625 65.4375 78.890625 64.796875 C 79.175781 64.625 79.460938 64.460938 79.742188 64.304688 C 79.914062 64.210938 80.019531 64.082031 80.074219 63.941406 C 89.46875 60.1875 99.390625 57.726562 109.40625 56.382812 C 129.492188 53.695312 149.949219 55.570312 169.726562 59.574219 Z M 38.132812 62.109375 C 39.347656 60.90625 40.648438 59.785156 41.996094 58.734375 C 44.761719 56.578125 47.792969 54.699219 50.964844 53.203125 C 52.453125 52.5 54.007812 51.941406 55.632812 51.664062 C 57.402344 51.363281 59.214844 51.484375 60.984375 51.734375 C 64.273438 52.203125 67.53125 52.976562 70.753906 53.769531 C 77.253906 55.367188 83.671875 57.269531 90.15625 58.917969 C 88.304688 59.457031 86.460938 60.027344 84.632812 60.65625 C 83.804688 60.941406 82.9375 61.21875 82.078125 61.511719 C 81.992188 61.367188 81.851562 61.253906 81.636719 61.203125 C 78.171875 60.433594 74.84375 59.195312 71.347656 58.554688 C 69.582031 58.230469 67.777344 58.039062 66.003906 58.417969 C 64.28125 58.785156 62.683594 59.628906 61.117188 60.40625 C 59.316406 61.300781 57.535156 62.234375 55.765625 63.179688 C 54.917969 63.632812 54.070312 64.085938 53.226562 64.546875 C 52.492188 64.945312 51.816406 65.40625 51.914062 66.34375 C 52.074219 67.894531 53.8125 68.902344 55.054688 69.515625 C 56.800781 70.375 58.628906 71.097656 60.417969 71.859375 C 64.664062 73.671875 68.9375 75.425781 73.234375 77.125 C 73.375 77.183594 73.503906 77.191406 73.621094 77.167969 C 73.128906 79.320312 72.640625 81.476562 72.152344 83.632812 C 72.101562 83.398438 71.949219 83.183594 71.671875 83.074219 C 65.6875 80.773438 59.742188 78.367188 54.011719 75.488281 C 51.332031 74.140625 48.699219 72.703125 46.097656 71.210938 C 44.617188 70.359375 43.144531 69.488281 41.675781 68.609375 C 40.320312 67.796875 38.835938 67.03125 37.707031 65.902344 C 37.324219 65.515625 36.925781 65.050781 36.828125 64.5 C 36.660156 63.535156 37.511719 62.722656 38.132812 62.109375 Z M 67.101562 94.910156 C 66.539062 93.21875 66.773438 91.398438 66.386719 89.671875 C 65.761719 86.875 63.058594 85.78125 60.632812 84.910156 C 57.332031 83.71875 54.304688 81.832031 51.378906 79.914062 C 48.074219 77.753906 45.058594 75.289062 42.199219 72.566406 C 40.796875 71.234375 39.355469 69.90625 38.164062 68.375 C 38.0625 68.242188 37.960938 68.105469 37.863281 67.96875 C 39.238281 68.984375 40.765625 69.816406 42.238281 70.6875 C 45.089844 72.378906 47.972656 74.027344 50.90625 75.574219 C 56.613281 78.574219 62.535156 81.101562 68.53125 83.457031 C 69.4375 83.8125 70.347656 84.164062 71.257812 84.515625 C 71.578125 84.636719 71.832031 84.53125 71.992188 84.332031 C 71.335938 87.226562 70.679688 90.117188 70.023438 93.007812 C 69.675781 94.539062 69.328125 96.070312 68.980469 97.601562 C 68.128906 96.894531 67.457031 95.976562 67.101562 94.910156 Z M 270.542969 193.332031 C 267.863281 200.207031 265.210938 207.097656 262.496094 213.964844 C 258.945312 222.960938 251.105469 229.808594 241.703125 232.101562 C 238.765625 232.816406 235.738281 233.003906 232.734375 233.246094 C 229.359375 233.519531 225.980469 233.726562 222.597656 233.863281 C 216.167969 234.121094 209.726562 234.128906 203.296875 233.882812 C 180.542969 233.007812 157.957031 228.847656 136.394531 221.53125 C 119.445312 215.78125 103.152344 208.109375 87.914062 198.722656 C 82.21875 195.210938 76.667969 191.460938 71.300781 187.464844 C 67.988281 185 64.835938 182.453125 62.402344 179.070312 C 59.542969 175.09375 57.683594 170.4375 57.015625 165.585938 C 56.402344 161.097656 57.078125 156.789062 58.0625 152.441406 C 58.988281 148.363281 59.914062 144.285156 60.839844 140.207031 C 63.726562 127.488281 66.613281 114.773438 69.503906 102.054688 C 69.691406 101.222656 69.878906 100.394531 70.066406 99.5625 C 70.390625 99.328125 70.542969 98.867188 70.300781 98.539062 C 72.175781 90.277344 74.050781 82.019531 75.925781 73.761719 C 76.027344 73.308594 76.128906 72.855469 76.234375 72.40625 C 80.195312 76.425781 84.792969 79.882812 89.371094 83.152344 C 97.402344 88.890625 105.898438 93.976562 114.621094 98.582031 C 126.382812 104.789062 138.617188 110.109375 151.128906 114.613281 C 165.644531 119.84375 180.582031 123.980469 195.570312 127.621094 C 207.71875 130.570312 219.984375 133.082031 232.347656 134.945312 C 241.648438 136.34375 251.007812 137.394531 260.398438 137.890625 C 267.035156 138.242188 273.695312 138.328125 280.335938 137.980469 C 284.445312 137.765625 288.554688 137.390625 292.617188 136.726562 C 290.09375 143.199219 287.566406 149.671875 285.042969 156.148438 C 280.210938 168.542969 275.375 180.9375 270.542969 193.332031 Z M 322.292969 151.523438 C 318.78125 152.300781 315.261719 152.96875 311.667969 153.234375 C 308.046875 153.503906 304.410156 153.582031 300.78125 153.351562 C 299.191406 153.25 297.574219 153.160156 296.007812 152.839844 C 294.847656 152.601562 293.5625 152.277344 292.386719 152.617188 C 290.796875 153.074219 289.867188 154.824219 288.972656 156.078125 C 288.496094 156.746094 287.972656 157.398438 287.277344 157.855469 C 286.988281 158.046875 286.675781 158.210938 286.34375 158.308594 C 286.253906 158.335938 285.988281 158.398438 285.753906 158.429688 C 287.21875 154.675781 288.679688 150.921875 290.144531 147.171875 C 296.417969 148.363281 302.726562 149.394531 309.097656 149.882812 C 312.207031 150.121094 315.328125 150.246094 318.445312 150.324219 C 320.261719 150.371094 322.074219 150.398438 323.890625 150.421875 C 324.625 150.433594 325.378906 150.445312 326.128906 150.398438 C 324.902344 150.914062 323.589844 151.238281 322.292969 151.523438 Z M 209.324219 56.875 C 209.9375 56.132812 210.96875 57.222656 210.363281 57.957031 C 208.371094 60.371094 205.085938 60.753906 202.566406 62.375 C 199.46875 64.363281 199.085938 68.386719 198.835938 71.722656 C 198.761719 72.683594 197.265625 72.667969 197.335938 71.710938 C 197.609375 68.117188 198.0625 63.945312 201.128906 61.566406 C 203.628906 59.632812 207.257812 59.386719 209.324219 56.875 Z M 195.742188 64.175781 C 195.46875 62.195312 196.484375 60.417969 197.980469 59.179688 C 199.488281 57.929688 201.285156 56.996094 202.953125 55.980469 C 203.78125 55.476562 204.503906 56.789062 203.679688 57.289062 C 202.238281 58.167969 200.710938 58.976562 199.359375 59.988281 C 198.191406 60.863281 196.976562 62.226562 197.191406 63.804688 C 197.25 64.207031 197.082031 64.605469 196.652344 64.714844 C 196.292969 64.808594 195.796875 64.578125 195.742188 64.175781 Z M 278.632812 149.605469 C 276.613281 155.527344 274.511719 161.417969 272.328125 167.28125 C 270.402344 172.449219 268.410156 177.59375 266.359375 182.710938 C 265.316406 185.308594 264.257812 187.898438 263.183594 190.484375 C 262.332031 192.53125 261.621094 195.117188 259.832031 196.570312 C 259.0625 197.199219 258.074219 197.5625 257.074219 197.511719 C 256.167969 197.460938 255.066406 197.046875 254.625 196.1875 C 254.335938 195.628906 254.847656 194.757812 255.035156 194.214844 C 255.246094 193.59375 255.457031 192.96875 255.675781 192.347656 C 256.121094 191.066406 256.574219 189.789062 257.039062 188.511719 C 258.941406 183.296875 261 178.136719 263.207031 173.042969 C 263.367188 172.671875 263.703125 172.398438 264.132812 172.527344 C 264.484375 172.632812 264.808594 173.078125 264.648438 173.453125 C 261.488281 180.734375 258.648438 188.152344 256.121094 195.675781 C 257.097656 196.609375 258.804688 195.65625 259.484375 194.796875 C 260.597656 193.390625 261.15625 191.480469 261.839844 189.84375 C 267.394531 176.464844 272.515625 162.90625 277.195312 149.195312 C 277.503906 148.285156 278.945312 148.695312 278.632812 149.605469 Z M 263.316406 168.675781 C 262.84375 167.988281 263.300781 167.160156 263.5625 166.484375 C 265.078125 162.621094 266.632812 158.773438 268.222656 154.9375 C 268.589844 154.058594 270.03125 154.460938 269.664062 155.351562 C 267.976562 159.410156 266.296875 163.476562 264.734375 167.585938 C 264.710938 167.644531 264.6875 167.703125 264.667969 167.761719 C 264.800781 167.78125 264.957031 167.800781 264.964844 167.800781 C 265.421875 167.828125 265.699219 167.796875 265.933594 167.375 C 266.425781 166.476562 266.753906 165.441406 267.152344 164.492188 C 268.007812 162.457031 268.863281 160.421875 269.722656 158.390625 C 270.089844 157.511719 271.535156 157.914062 271.160156 158.800781 C 270.242188 160.984375 269.320312 163.171875 268.402344 165.355469 C 268.023438 166.257812 267.683594 167.191406 267.253906 168.066406 C 266.898438 168.792969 266.269531 169.214844 265.46875 169.289062 C 264.773438 169.355469 263.75 169.304688 263.316406 168.675781 Z M 74.347656 119.632812 C 71.097656 131.230469 67.972656 142.863281 64.972656 154.527344 C 64.734375 155.460938 63.296875 155.046875 63.535156 154.113281 C 64.382812 150.816406 65.242188 147.519531 66.109375 144.226562 C 69.179688 132.582031 72.375 120.96875 75.695312 109.390625 C 75.964844 108.464844 77.402344 108.878906 77.136719 109.804688 C 76.199219 113.078125 75.269531 116.351562 74.347656 119.632812 Z M 73.390625 141.863281 C 70.851562 150.90625 68.308594 159.949219 65.769531 168.992188 C 65.507812 169.921875 64.070312 169.507812 64.328125 168.578125 C 65.058594 165.988281 65.785156 163.402344 66.511719 160.8125 C 69.054688 151.769531 71.59375 142.726562 74.136719 133.683594 C 74.398438 132.753906 75.835938 133.167969 75.574219 134.09375 C 74.847656 136.683594 74.121094 139.273438 73.390625 141.863281 Z M 75.523438 128.265625 C 76.203125 125.898438 76.878906 123.53125 77.554688 121.164062 C 77.820312 120.238281 79.257812 120.648438 78.992188 121.574219 C 78.316406 123.941406 77.640625 126.308594 76.964844 128.675781 C 76.699219 129.601562 75.261719 129.191406 75.523438 128.265625 Z M 208.789062 229.449219 C 200.203125 229.34375 191.625 228.765625 183.101562 227.710938 C 168.003906 225.839844 153.089844 222.519531 138.628906 217.785156 C 124.171875 213.050781 110.175781 206.914062 96.910156 199.472656 C 96.066406 199 96.847656 197.722656 97.6875 198.191406 C 105.121094 202.363281 112.777344 206.125 120.625 209.449219 C 134.5 215.320312 148.941406 219.847656 163.683594 222.960938 C 178.515625 226.089844 193.644531 227.765625 208.804688 227.953125 C 209.769531 227.964844 209.753906 229.460938 208.789062 229.449219 Z M 106.300781 197.519531 C 112.753906 200.851562 119.371094 203.867188 126.121094 206.542969 C 138.070312 211.28125 150.425781 214.980469 163.007812 217.601562 C 175.601562 220.222656 188.410156 221.742188 201.265625 222.140625 C 202.230469 222.167969 202.214844 223.667969 201.25 223.636719 C 193.925781 223.410156 186.613281 222.820312 179.347656 221.871094 C 166.539062 220.195312 153.875 217.425781 141.539062 213.578125 C 129.132812 209.710938 117.066406 204.757812 105.519531 198.796875 C 104.664062 198.355469 105.445312 197.078125 106.300781 197.519531 Z M 236.730469 90.648438 C 239.679688 92.011719 242.574219 93.484375 245.40625 95.070312 C 250.398438 97.863281 255.199219 101 259.765625 104.445312 C 262.039062 106.164062 264.253906 107.953125 266.40625 109.816406 C 268.285156 111.441406 270.164062 113.1875 271.167969 115.507812 C 271.367188 115.96875 271.1875 116.433594 270.699219 116.597656 C 268.355469 117.375 266.273438 115.585938 264.621094 114.164062 C 257.351562 107.910156 249.503906 102.339844 241.230469 97.496094 C 240.398438 97.007812 241.175781 95.730469 242.007812 96.21875 C 244.277344 97.542969 246.515625 98.925781 248.71875 100.363281 C 252.5625 102.871094 256.296875 105.546875 259.914062 108.375 C 261.722656 109.796875 263.507812 111.25 265.257812 112.746094 C 266.371094 113.695312 267.796875 115.171875 269.367188 115.265625 C 268.132812 113.132812 266.132812 111.523438 264.269531 109.949219 C 255.703125 102.699219 246.136719 96.636719 235.953125 91.925781 C 235.078125 91.519531 235.867188 90.246094 236.730469 90.648438 Z M 271.59375 120.238281 C 272.242188 120.9375 272.953125 121.574219 273.707031 122.160156 C 274.398438 122.699219 275.167969 123.292969 276 123.597656 C 276.957031 123.941406 278.046875 123.355469 278 122.265625 C 277.960938 121.34375 277.328125 120.53125 276.792969 119.828125 C 276.179688 119.027344 275.449219 118.339844 274.648438 117.730469 C 274.328125 117.488281 273.816406 117.660156 273.621094 117.980469 C 273.390625 118.355469 273.546875 118.765625 273.871094 119.011719 C 274.546875 119.523438 275.183594 120.167969 275.710938 120.863281 C 275.941406 121.167969 276.175781 121.519531 276.363281 121.871094 C 276.421875 121.976562 276.433594 121.996094 276.457031 122.082031 C 276.457031 122.078125 276.46875 122.128906 276.480469 122.171875 C 276.445312 122.160156 276.40625 122.152344 276.367188 122.136719 C 276.347656 122.121094 276.265625 122.082031 276.253906 122.074219 C 276.144531 122.015625 276.035156 121.949219 275.929688 121.882812 C 275.53125 121.636719 275.140625 121.371094 274.765625 121.09375 C 274.011719 120.53125 273.316406 119.890625 272.675781 119.203125 C 272.015625 118.496094 270.9375 119.535156 271.59375 120.238281 Z M 276.621094 122.210938 C 276.617188 122.210938 276.617188 122.210938 276.613281 122.210938 C 276.636719 122.191406 276.652344 122.183594 276.621094 122.210938 Z M 87.3125 65.609375 C 88.25 64.746094 89.601562 64.476562 90.785156 64.140625 C 92.335938 63.695312 93.894531 63.265625 95.453125 62.847656 C 98.492188 62.03125 101.546875 61.265625 104.613281 60.546875 C 105.550781 60.328125 105.921875 61.777344 104.984375 62 C 101.917969 62.71875 98.863281 63.480469 95.824219 64.296875 C 94.460938 64.664062 93.097656 65.039062 91.738281 65.425781 C 90.675781 65.726562 89.191406 65.910156 88.347656 66.6875 C 87.523438 67.449219 88.308594 68.445312 88.894531 69.066406 C 89.789062 70.015625 90.761719 70.898438 91.722656 71.773438 C 93.691406 73.5625 95.75 75.253906 97.890625 76.832031 C 98.96875 77.628906 100.070312 78.398438 101.191406 79.140625 C 101.761719 79.523438 102.339844 79.898438 102.925781 80.257812 C 103.097656 80.367188 103.273438 80.464844 103.453125 80.554688 C 103.132812 80.078125 102.675781 79.667969 102.261719 79.316406 C 101.398438 78.578125 100.488281 77.898438 99.628906 77.15625 C 97.972656 75.734375 96.394531 74.214844 94.910156 72.609375 C 94.207031 71.851562 93.492188 71.078125 92.859375 70.257812 C 92.339844 69.578125 91.9375 68.773438 92.183594 67.902344 C 92.429688 67.035156 93.230469 66.535156 94.019531 66.238281 C 95 65.867188 96.0625 65.679688 97.074219 65.425781 C 99.351562 64.855469 101.628906 64.285156 103.902344 63.714844 C 104.839844 63.476562 105.210938 64.929688 104.273438 65.164062 C 101.878906 65.765625 99.484375 66.363281 97.085938 66.964844 C 96.160156 67.199219 95.097656 67.335938 94.234375 67.761719 C 93.382812 68.1875 93.585938 68.792969 94.113281 69.433594 C 95.390625 71 96.792969 72.472656 98.246094 73.875 C 99.6875 75.269531 101.210938 76.558594 102.773438 77.8125 C 104.035156 78.820312 105.160156 79.921875 105.355469 81.597656 C 105.40625 82.023438 104.964844 82.320312 104.601562 82.339844 C 103.011719 82.425781 101.5625 81.1875 100.3125 80.355469 C 98.910156 79.421875 97.53125 78.441406 96.1875 77.421875 C 93.816406 75.617188 91.539062 73.6875 89.378906 71.636719 C 87.878906 70.214844 85.042969 67.691406 87.3125 65.609375 Z M 107.570312 83.472656 C 109.109375 84.546875 110.699219 85.539062 112.339844 86.441406 C 113.113281 86.867188 113.898438 87.289062 114.699219 87.660156 C 115.078125 87.832031 115.480469 87.996094 115.890625 88.066406 C 116.058594 88.09375 116.234375 88.109375 116.402344 88.097656 C 116.4375 88.097656 116.527344 88.070312 116.609375 88.050781 C 116.574219 88.003906 116.542969 87.949219 116.5 87.90625 C 116.390625 87.78125 116.265625 87.660156 116.136719 87.550781 C 115.835938 87.300781 115.484375 87.097656 115.144531 86.902344 C 114.359375 86.453125 113.5625 86.019531 112.773438 85.582031 C 111.078125 84.636719 109.378906 83.691406 107.683594 82.746094 C 106.839844 82.277344 107.621094 81 108.464844 81.46875 C 110.285156 82.484375 112.105469 83.496094 113.929688 84.511719 C 115.242188 85.242188 116.871094 85.898438 117.792969 87.136719 C 118.238281 87.730469 118.445312 88.515625 117.824219 89.09375 C 117.277344 89.601562 116.457031 89.652344 115.757812 89.550781 C 114.179688 89.320312 112.65625 88.332031 111.289062 87.570312 C 109.742188 86.707031 108.242188 85.765625 106.792969 84.753906 C 106.003906 84.203125 106.777344 82.921875 107.570312 83.472656 Z M 107.570312 83.472656 " fill-opacity="1" fill-rule="nonzero"/></g></g></g></g></g></g></svg>