<svg xmlns="http://www.w3.org/2000/svg" xmlns:xlink="http://www.w3.org/1999/xlink" width="500" zoomAndPan="magnify" viewBox="0 0 375 374.999991" height="500" preserveAspectRatio="xMidYMid meet" version="1.0"><defs><filter x="0%" y="0%" width="100%" height="100%" id="25e03c2ee9"><feColorMatrix values="0 0 0 0 1 0 0 0 0 1 0 0 0 0 1 0 0 0 1 0" color-interpolation-filters="sRGB"/></filter><mask id="55cd5a0f3c"><g filter="url(#25e03c2ee9)"><rect x="-37.5" width="450" fill="#000000" y="-37.499999" height="449.999989" fill-opacity="0.19"/></g></mask><clipPath id="6f4d8e7490"><path d="M 204 288 L 216 288 L 216 331 L 204 331 Z M 204 288 " clip-rule="nonzero"/></clipPath><clipPath id="5eda7687a6"><path d="M -0.457031 62.207031 L 178.171875 -3.992188 L 295.453125 312.476562 L 116.824219 378.671875 Z M -0.457031 62.207031 " clip-rule="nonzero"/></clipPath><clipPath id="ba8e564ce8"><path d="M -0.457031 62.207031 L 178.171875 -3.992188 L 295.453125 312.476562 L 116.824219 378.671875 Z M -0.457031 62.207031 " clip-rule="nonzero"/></clipPath><clipPath id="dfdd3e2f0a"><path d="M 196 328 L 204 328 L 204 336 L 196 336 Z M 196 328 " clip-rule="nonzero"/></clipPath><clipPath id="4c91f5456c"><path d="M -0.457031 62.207031 L 178.171875 -3.992188 L 295.453125 312.476562 L 116.824219 378.671875 Z M -0.457031 62.207031 " clip-rule="nonzero"/></clipPath><clipPath id="3b77d6f6a3"><path d="M -0.457031 62.207031 L 178.171875 -3.992188 L 295.453125 312.476562 L 116.824219 378.671875 Z M -0.457031 62.207031 " clip-rule="nonzero"/></clipPath><clipPath id="d6862c7ee3"><path d="M 150 273 L 205 273 L 205 289 L 150 289 Z M 150 273 " clip-rule="nonzero"/></clipPath><clipPath id="eb00b94699"><path d="M -0.457031 62.207031 L 178.171875 -3.992188 L 295.453125 312.476562 L 116.824219 378.671875 Z M -0.457031 62.207031 " clip-rule="nonzero"/></clipPath><clipPath id="b787850eb3"><path d="M -0.457031 62.207031 L 178.171875 -3.992188 L 295.453125 312.476562 L 116.824219 378.671875 Z M -0.457031 62.207031 " clip-rule="nonzero"/></clipPath><clipPath id="feca185660"><path d="M 169 282 L 203 282 L 203 292 L 169 292 Z M 169 282 " clip-rule="nonzero"/></clipPath><clipPath id="766c62cf1f"><path d="M -0.457031 62.207031 L 178.171875 -3.992188 L 295.453125 312.476562 L 116.824219 378.671875 Z M -0.457031 62.207031 " clip-rule="nonzero"/></clipPath><clipPath id="4ba33c25dd"><path d="M -0.457031 62.207031 L 178.171875 -3.992188 L 295.453125 312.476562 L 116.824219 378.671875 Z M -0.457031 62.207031 " clip-rule="nonzero"/></clipPath><clipPath id="95da54985c"><path d="M 179 289 L 199 289 L 199 296 L 179 296 Z M 179 289 " clip-rule="nonzero"/></clipPath><clipPath id="2644214988"><path d="M -0.457031 62.207031 L 178.171875 -3.992188 L 295.453125 312.476562 L 116.824219 378.671875 Z M -0.457031 62.207031 " clip-rule="nonzero"/></clipPath><clipPath id="0da77d8211"><path d="M -0.457031 62.207031 L 178.171875 -3.992188 L 295.453125 312.476562 L 116.824219 378.671875 Z M -0.457031 62.207031 " clip-rule="nonzero"/></clipPath><clipPath id="f699de4e28"><path d="M 29 32 L 232 32 L 232 357 L 29 357 Z M 29 32 " clip-rule="nonzero"/></clipPath><clipPath id="fd2dfba0b1"><path d="M -0.457031 62.207031 L 178.171875 -3.992188 L 295.453125 312.476562 L 116.824219 378.671875 Z M -0.457031 62.207031 " clip-rule="nonzero"/></clipPath><clipPath id="e9e44f79db"><path d="M -0.457031 62.207031 L 178.171875 -3.992188 L 295.453125 312.476562 L 116.824219 378.671875 Z M -0.457031 62.207031 " clip-rule="nonzero"/></clipPath><clipPath id="601d2c3c78"><path d="M 100 64 L 148 64 L 148 196 L 100 196 Z M 100 64 " clip-rule="nonzero"/></clipPath><clipPath id="1238adb124"><path d="M -0.457031 62.207031 L 178.171875 -3.992188 L 295.453125 312.476562 L 116.824219 378.671875 Z M -0.457031 62.207031 " clip-rule="nonzero"/></clipPath><clipPath id="5188106559"><path d="M -0.457031 62.207031 L 178.171875 -3.992188 L 295.453125 312.476562 L 116.824219 378.671875 Z M -0.457031 62.207031 " clip-rule="nonzero"/></clipPath><clipPath id="f13644f431"><path d="M 116 106 L 139 106 L 139 160 L 116 160 Z M 116 106 " clip-rule="nonzero"/></clipPath><clipPath id="b7a99ef979"><path d="M -0.457031 62.207031 L 178.171875 -3.992188 L 295.453125 312.476562 L 116.824219 378.671875 Z M -0.457031 62.207031 " clip-rule="nonzero"/></clipPath><clipPath id="b2f3c7b18f"><path d="M -0.457031 62.207031 L 178.171875 -3.992188 L 295.453125 312.476562 L 116.824219 378.671875 Z M -0.457031 62.207031 " clip-rule="nonzero"/></clipPath><clipPath id="d9e2788e9b"><path d="M 80 203 L 96 203 L 96 219 L 80 219 Z M 80 203 " clip-rule="nonzero"/></clipPath><clipPath id="f99479aaa2"><path d="M -0.457031 62.207031 L 178.171875 -3.992188 L 295.453125 312.476562 L 116.824219 378.671875 Z M -0.457031 62.207031 " clip-rule="nonzero"/></clipPath><clipPath id="e3a35bacda"><path d="M -0.457031 62.207031 L 178.171875 -3.992188 L 295.453125 312.476562 L 116.824219 378.671875 Z M -0.457031 62.207031 " clip-rule="nonzero"/></clipPath><clipPath id="17462da2e2"><path d="M 176 144 L 191 144 L 191 159 L 176 159 Z M 176 144 " clip-rule="nonzero"/></clipPath><clipPath id="a6682941c9"><path d="M -0.457031 62.207031 L 178.171875 -3.992188 L 295.453125 312.476562 L 116.824219 378.671875 Z M -0.457031 62.207031 " clip-rule="nonzero"/></clipPath><clipPath id="97f702ed7d"><path d="M -0.457031 62.207031 L 178.171875 -3.992188 L 295.453125 312.476562 L 116.824219 378.671875 Z M -0.457031 62.207031 " clip-rule="nonzero"/></clipPath><clipPath id="15c742e2b7"><path d="M 199 177 L 211 177 L 211 190 L 199 190 Z M 199 177 " clip-rule="nonzero"/></clipPath><clipPath id="77cd85205d"><path d="M -0.457031 62.207031 L 178.171875 -3.992188 L 295.453125 312.476562 L 116.824219 378.671875 Z M -0.457031 62.207031 " clip-rule="nonzero"/></clipPath><clipPath id="7199d1ff87"><path d="M -0.457031 62.207031 L 178.171875 -3.992188 L 295.453125 312.476562 L 116.824219 378.671875 Z M -0.457031 62.207031 " clip-rule="nonzero"/></clipPath><clipPath id="48ae0cbe16"><path d="M 136 33 L 148 33 L 148 45 L 136 45 Z M 136 33 " clip-rule="nonzero"/></clipPath><clipPath id="26aacc0cba"><path d="M -0.457031 62.207031 L 178.171875 -3.992188 L 295.453125 312.476562 L 116.824219 378.671875 Z M -0.457031 62.207031 " clip-rule="nonzero"/></clipPath><clipPath id="6aa68a81c7"><path d="M -0.457031 62.207031 L 178.171875 -3.992188 L 295.453125 312.476562 L 116.824219 378.671875 Z M -0.457031 62.207031 " clip-rule="nonzero"/></clipPath><clipPath id="63ad40d0bd"><path d="M 45 74 L 61 74 L 61 90 L 45 90 Z M 45 74 " clip-rule="nonzero"/></clipPath><clipPath id="e24f68e064"><path d="M -0.457031 62.207031 L 178.171875 -3.992188 L 295.453125 312.476562 L 116.824219 378.671875 Z M -0.457031 62.207031 " clip-rule="nonzero"/></clipPath><clipPath id="b2542b3e10"><path d="M -0.457031 62.207031 L 178.171875 -3.992188 L 295.453125 312.476562 L 116.824219 378.671875 Z M -0.457031 62.207031 " clip-rule="nonzero"/></clipPath><clipPath id="ea70693dc5"><path d="M 62 37 L 73 37 L 73 48 L 62 48 Z M 62 37 " clip-rule="nonzero"/></clipPath><clipPath id="76b507db03"><path d="M -0.457031 62.207031 L 178.171875 -3.992188 L 295.453125 312.476562 L 116.824219 378.671875 Z M -0.457031 62.207031 " clip-rule="nonzero"/></clipPath><clipPath id="6faa55c2d7"><path d="M -0.457031 62.207031 L 178.171875 -3.992188 L 295.453125 312.476562 L 116.824219 378.671875 Z M -0.457031 62.207031 " clip-rule="nonzero"/></clipPath><clipPath id="27b246cdad"><rect x="0" width="295" y="0" height="375"/></clipPath></defs><g mask="url(#55cd5a0f3c)"><g transform="matrix(1, 0, 0, 1, 40, 0)"><g clip-path="url(#27b246cdad)"><g clip-path="url(#6f4d8e7490)"><g clip-path="url(#5eda7687a6)"><g clip-path="url(#ba8e564ce8)"><path fill="#d43d3d" d="M 209.941406 289.90625 C 212.449219 296.484375 213.050781 303.699219 211.664062 310.578125 C 211.03125 313.886719 210.015625 317.125 208.566406 320.164062 C 207.179688 323.179688 204.429688 325.988281 204.628906 329.417969 C 204.691406 329.96875 205.261719 330.542969 205.875 330.460938 C 209.691406 329.757812 211.355469 325.566406 212.734375 322.339844 C 214.207031 318.789062 215.273438 315.105469 215.632812 311.25 C 216.335938 303.695312 215.128906 295.992188 211.738281 289.164062 C 211.21875 288.144531 209.496094 288.710938 209.941406 289.90625 Z M 209.941406 289.90625 " fill-opacity="1" fill-rule="nonzero"/></g></g></g><g clip-path="url(#dfdd3e2f0a)"><g clip-path="url(#4c91f5456c)"><g clip-path="url(#3b77d6f6a3)"><path fill="#d43d3d" d="M 201.445312 328.738281 C 201.421875 328.675781 201.359375 328.699219 201.445312 328.738281 C 201.359375 328.699219 201.359375 328.699219 201.359375 328.699219 C 201.101562 328.582031 200.804688 328.546875 200.542969 328.429688 C 200.542969 328.429688 200.542969 328.429688 200.480469 328.453125 C 199.886719 328.386719 199.3125 328.386719 198.746094 328.59375 C 198.519531 328.75 198.203125 328.867188 197.976562 329.023438 C 197.519531 329.335938 197.132812 329.835938 196.894531 330.355469 C 196.695312 330.785156 196.625 331.167969 196.640625 331.59375 C 196.589844 332.039062 196.605469 332.464844 196.832031 332.882812 C 196.992188 333.320312 197.195312 333.675781 197.523438 333.984375 C 197.789062 334.3125 198.09375 334.558594 198.527344 334.753906 C 198.699219 334.835938 198.933594 334.890625 199.105469 334.96875 C 199.105469 334.96875 199.128906 335.03125 199.191406 335.007812 C 199.191406 335.007812 199.253906 334.984375 199.277344 335.050781 C 199.277344 335.050781 199.363281 335.089844 199.363281 335.089844 C 199.363281 335.089844 199.429688 335.066406 199.449219 335.128906 C 199.449219 335.128906 199.515625 335.105469 199.515625 335.105469 C 199.835938 335.199219 200.15625 335.296875 200.496094 335.242188 C 200.769531 335.210938 201.082031 335.09375 201.359375 335.066406 C 201.796875 334.902344 202.152344 334.699219 202.460938 334.371094 C 202.6875 334.214844 202.894531 333.996094 203.011719 333.738281 C 203.257812 333.433594 203.453125 333 203.503906 332.554688 C 203.535156 332.253906 203.503906 331.980469 203.539062 331.683594 C 203.453125 331.070312 203.269531 330.566406 202.933594 330.046875 C 202.441406 329.300781 202.007812 329.101562 201.445312 328.738281 Z M 198.675781 334.773438 C 198.480469 334.628906 198.308594 334.550781 198.113281 334.410156 C 198.332031 334.613281 198.675781 334.773438 198.972656 334.804688 C 198.910156 334.828125 198.761719 334.8125 198.675781 334.773438 Z M 199.40625 335.003906 Z M 199.40625 335.003906 " fill-opacity="1" fill-rule="nonzero"/></g></g></g><g clip-path="url(#d6862c7ee3)"><g clip-path="url(#eb00b94699)"><g clip-path="url(#b787850eb3)"><path fill="#d43d3d" d="M 204.199219 274.796875 C 204.929688 274.453125 204.640625 273.488281 203.921875 273.46875 C 194.523438 273.589844 185.101562 276.722656 176.167969 279.25 C 171.6875 280.480469 167.195312 281.859375 162.761719 283.214844 C 159.046875 284.378906 153.539062 285.347656 150.796875 288.363281 C 150.695312 288.472656 150.765625 288.664062 150.914062 288.679688 C 154.605469 289.382812 159.246094 287.234375 162.734375 286.230469 C 167.378906 284.867188 172.046875 283.566406 176.738281 282.328125 C 185.867188 279.945312 195.558594 278.5 204.199219 274.796875 Z M 204.199219 274.796875 " fill-opacity="1" fill-rule="nonzero"/></g></g></g><g clip-path="url(#feca185660)"><g clip-path="url(#766c62cf1f)"><g clip-path="url(#4ba33c25dd)"><path fill="#d43d3d" d="M 202.046875 283.460938 C 202.523438 283.210938 202.582031 282.402344 201.921875 282.363281 C 196.707031 281.792969 191.207031 283.546875 186.238281 284.8125 C 180.875 286.15625 175.609375 287.964844 170.390625 289.902344 C 169.445312 290.25 169.957031 291.632812 170.925781 291.347656 C 176.09375 289.859375 181.273438 288.585938 186.535156 287.347656 C 191.652344 286.097656 197.257812 285.59375 202.046875 283.460938 Z M 202.046875 283.460938 " fill-opacity="1" fill-rule="nonzero"/></g></g></g><g clip-path="url(#95da54985c)"><g clip-path="url(#2644214988)"><g clip-path="url(#0da77d8211)"><path fill="#d43d3d" d="M 198.445312 290.730469 C 198.839844 290.441406 198.730469 289.765625 198.199219 289.679688 C 196.722656 289.367188 195.160156 289.589844 193.707031 289.914062 C 192.128906 290.28125 190.550781 290.652344 188.90625 291.046875 C 185.796875 291.914062 182.679688 292.570312 179.707031 293.8125 C 178.953125 294.09375 179.183594 295.296875 180.03125 295.265625 C 183.226562 295.011719 186.382812 294.269531 189.503906 293.617188 C 191.042969 293.332031 192.621094 292.960938 194.136719 292.613281 C 195.691406 292.179688 197.226562 291.683594 198.445312 290.730469 Z M 198.445312 290.730469 " fill-opacity="1" fill-rule="nonzero"/></g></g></g><g clip-path="url(#f699de4e28)"><g clip-path="url(#fd2dfba0b1)"><g clip-path="url(#e9e44f79db)"><path fill="#d43d3d" d="M 188.109375 34.742188 C 177.082031 27.171875 164.65625 41.503906 158.910156 49.351562 C 154.730469 55.050781 151.503906 61.394531 149.089844 68.011719 C 147.59375 72.070312 146.210938 76.445312 145.636719 80.878906 C 141.125 70.246094 136.222656 59.335938 129.421875 50.054688 C 122.730469 40.878906 112.710938 34.292969 100.894531 36.382812 C 89.082031 38.46875 80.140625 47.148438 75.8125 58.050781 C 70.875 70.390625 71.726562 83.878906 73.851562 96.75 C 75.90625 108.863281 78.617188 120.804688 81.851562 132.621094 C 79.785156 128.59375 75.953125 125.007812 72.84375 122.011719 C 68.941406 118.238281 64.273438 115.105469 59.125 113.367188 C 49.789062 110.175781 38.027344 111.816406 32.417969 120.617188 C 26.242188 130.199219 29.515625 143.078125 34.660156 152.328125 C 40.433594 162.703125 49.988281 170.53125 60.414062 175.894531 C 66.351562 178.988281 72.683594 181.214844 79.113281 183.125 C 85.714844 185.113281 92.960938 186.71875 99.824219 187.105469 C 105.910156 202.945312 112.6875 218.527344 120.066406 233.8125 C 116.304688 234.851562 112.539062 235.886719 108.777344 236.925781 C 101.652344 238.921875 89.914062 240.054688 87.5625 248.578125 C 86.480469 252.410156 87.714844 256.316406 88.664062 260.042969 C 89.910156 264.945312 91.179688 269.910156 92.359375 274.835938 C 94.246094 282.433594 95.609375 294.800781 104.949219 296.84375 C 107.453125 297.417969 110.992188 297.324219 114.015625 296.417969 C 113.898438 298.605469 114.164062 300.867188 114.535156 303.019531 C 115.847656 310.042969 117.839844 316.957031 119.46875 323.863281 C 121.160156 330.742188 122.292969 338.046875 124.828125 344.6875 C 126.871094 350.011719 130.496094 354.390625 136.109375 356.027344 C 141.808594 357.707031 148.003906 356.480469 153.683594 355.59375 C 161.238281 354.367188 168.8125 352.992188 176.398438 351.464844 C 189.695312 348.753906 204.769531 346.386719 215.125 336.898438 C 224.910156 327.980469 228.480469 314.070312 227.351562 301.1875 C 226.726562 294.484375 224.726562 287.929688 222.523438 281.59375 C 220.8125 276.792969 219.128906 272.050781 216.648438 267.679688 C 220.839844 267.984375 224.96875 266.386719 229.304688 265.351562 C 230.609375 265.007812 231.609375 263.277344 231.417969 261.992188 C 230.140625 253.523438 228.902344 244.972656 227.6875 236.484375 C 227.101562 232.195312 226.449219 227.929688 225.863281 223.644531 C 225.234375 219.441406 225.050781 214.503906 222.097656 211.164062 C 216.414062 204.902344 205.910156 209.941406 199.371094 211.792969 C 194.640625 213.113281 189.847656 214.460938 185.117188 215.785156 C 182.464844 201.679688 178.988281 187.664062 175.53125 173.710938 C 173.515625 165.375 171.351562 157.023438 169.058594 148.71875 C 174.109375 143.628906 177.574219 137.339844 181.035156 131.050781 C 184.71875 124.394531 188.167969 117.679688 191.136719 110.644531 C 196.585938 97.753906 200.234375 83.671875 200.171875 69.605469 C 200.136719 62.753906 199.230469 55.867188 197.355469 49.265625 C 195.730469 43.71875 193.019531 38.144531 188.109375 34.742188 Z M 100.480469 42.398438 C 105.757812 53.746094 112.207031 64.585938 117.609375 75.886719 C 123.125 87.289062 128.15625 98.941406 132.8125 110.730469 C 142.0625 134.335938 149.570312 158.660156 155.230469 183.378906 C 156.875 190.710938 158.367188 198.023438 159.671875 205.40625 C 160.679688 210.824219 161.042969 216.628906 162.285156 222.101562 C 160.015625 222.730469 157.804688 223.332031 155.535156 223.960938 C 155.511719 223.898438 155.550781 223.8125 155.503906 223.683594 C 155.492188 221.332031 155.414062 219 155.1875 216.652344 C 154.710938 211.894531 153.472656 207.203125 151.882812 202.714844 C 151.4375 201.519531 149.765625 202.210938 150.058594 203.390625 C 151.265625 207.804688 151.945312 212.34375 152.351562 216.914062 C 152.507812 219.074219 152.601562 221.257812 152.570312 223.484375 C 152.585938 223.910156 152.535156 224.355469 152.550781 224.78125 C 150.277344 225.40625 148.007812 226.035156 145.738281 226.660156 C 144.90625 224.035156 143.433594 221.792969 142.101562 219.355469 C 140.433594 216.398438 138.828125 213.417969 137.199219 210.375 C 134.144531 204.640625 131.300781 198.898438 128.5 193.070312 C 123.046875 181.648438 118.015625 169.996094 113.421875 158.179688 C 104.230469 134.339844 96.773438 109.785156 91.296875 84.78125 C 88.699219 72.941406 87.472656 61.523438 87.816406 49.523438 C 89.824219 47.421875 92.226562 45.601562 94.941406 44.238281 C 96.71875 43.4375 98.625 42.800781 100.480469 42.398438 Z M 72.835938 172.363281 C 63.488281 168.75 54.535156 163.699219 47.75 156.199219 C 44.625 152.78125 41.792969 148.609375 39.839844 144.113281 C 40.644531 144.746094 41.453125 145.375 42.296875 145.921875 C 45.75 148.289062 49.367188 150.523438 53.101562 152.5 C 60.535156 156.539062 68.445312 159.546875 76.644531 161.796875 C 77.757812 162.101562 78.289062 160.257812 77.242188 159.933594 C 69.433594 157.390625 61.808594 153.992188 54.652344 149.925781 C 51.039062 147.902344 47.546875 145.617188 44.160156 143.226562 C 42.507812 142.050781 40.832031 140.8125 39.246094 139.613281 C 38.851562 139.328125 38.523438 139.023438 38.109375 138.675781 C 37.539062 136.167969 37.328125 133.671875 37.582031 131.074219 C 37.671875 129.96875 37.9375 128.941406 38.285156 127.953125 C 39.105469 129.007812 40.089844 129.929688 40.972656 130.964844 C 43.214844 133.351562 45.726562 135.496094 48.359375 137.378906 C 50.902344 139.226562 53.585938 140.878906 56.351562 142.355469 C 58.8125 143.589844 62.117188 145.371094 64.929688 145.042969 C 65.054688 144.996094 65.15625 144.886719 65.046875 144.785156 C 63.242188 142.808594 60.277344 141.757812 57.945312 140.480469 C 55.15625 138.9375 52.511719 137.199219 50.007812 135.269531 C 47.589844 133.375 45.398438 131.324219 43.3125 129.167969 C 42.039062 127.851562 40.90625 126.339844 39.628906 125.023438 C 42.851562 119.824219 49.265625 117.449219 55.847656 118.226562 C 61.175781 118.898438 65.828125 121.609375 70.03125 124.84375 C 74.121094 127.976562 77.511719 132.871094 82.085938 135.179688 C 82.257812 135.257812 82.445312 135.191406 82.570312 135.144531 C 83.050781 136.824219 83.46875 138.527344 83.949219 140.210938 C 84.382812 141.765625 84.878906 143.300781 85.375 144.832031 C 84.46875 144.308594 83.558594 143.789062 82.585938 143.289062 C 79.171875 141.410156 75.671875 139.488281 72.257812 137.605469 C 65.511719 133.882812 58.753906 129.738281 51.480469 127.285156 C 51.222656 127.164062 50.9375 127.554688 51.21875 127.738281 C 57.027344 132.59375 63.996094 136.160156 70.464844 139.914062 C 73.753906 141.84375 77.105469 143.746094 80.394531 145.675781 C 82.039062 146.640625 83.683594 147.601562 85.390625 148.542969 C 85.847656 148.804688 86.277344 149.003906 86.730469 149.261719 C 89.941406 159.660156 93.441406 169.875 97.214844 180.0625 C 89.144531 177.191406 80.703125 175.453125 72.835938 172.363281 Z M 93.703125 154.761719 C 89.324219 141.007812 85.382812 127.09375 82.367188 112.976562 C 79.558594 100 76.425781 86.140625 77.914062 72.789062 C 78.09375 71.148438 78.398438 69.464844 78.703125 67.777344 C 79.078125 70.714844 79.449219 73.652344 79.910156 76.628906 C 80.988281 83.59375 82.257812 90.488281 83.738281 97.378906 C 86.707031 110.796875 90.605469 124.011719 95.359375 136.839844 C 95.660156 137.65625 96.917969 137.191406 96.617188 136.375 C 92.019531 123.203125 88.304688 109.703125 85.367188 95.988281 C 83.964844 89.5 82.835938 82.980469 81.832031 76.414062 C 81.359375 73.015625 80.910156 69.675781 80.5 66.253906 C 80.394531 65.003906 80.328125 63.671875 80.199219 62.359375 C 81.421875 58.902344 83.050781 55.582031 85.183594 52.644531 C 84.378906 61.667969 85.769531 71.023438 87.417969 79.710938 C 89.691406 92.027344 92.667969 104.296875 96.058594 116.34375 C 103.046875 141.570312 112.160156 166.15625 123.234375 189.875 C 126.273438 196.328125 129.433594 202.738281 132.722656 209.101562 C 134.289062 212.167969 135.894531 215.148438 137.5625 218.105469 C 139.277344 221.1875 140.855469 224.679688 143.128906 227.34375 C 139.492188 228.332031 135.789062 229.347656 132.175781 230.398438 C 131.453125 228.449219 130.292969 226.664062 129.277344 224.894531 C 127.828125 222.140625 126.378906 219.390625 124.992188 216.613281 C 122.3125 211.3125 119.847656 206.003906 117.417969 200.609375 C 112.695312 189.988281 108.347656 179.226562 104.507812 168.277344 C 104.203125 167.460938 103.007812 167.90625 103.25 168.746094 C 106.664062 180.28125 110.523438 191.652344 115.195312 202.722656 C 117.5 208.164062 119.925781 213.554688 122.457031 218.839844 C 124.347656 222.789062 126.082031 227.652344 128.8125 231.359375 C 126.480469 232.011719 124.144531 232.660156 121.8125 233.3125 C 112.832031 206.957031 102.21875 181.214844 93.703125 154.761719 Z M 220.300781 295.863281 C 222.488281 306.207031 221.542969 317.929688 215.582031 326.933594 C 208.363281 337.761719 195.039062 340.980469 183.078125 343.628906 C 179.894531 344.304688 176.800781 345.023438 173.59375 345.640625 C 173.0625 344.976562 172.535156 344.316406 172.042969 343.570312 C 170.730469 341.765625 169.417969 339.964844 168.296875 338.09375 C 168.09375 337.738281 167.574219 338.074219 167.691406 338.386719 C 168.417969 340.550781 169.25 342.601562 170.484375 344.574219 C 170.796875 345.03125 171.132812 345.550781 171.46875 346.070312 C 169.675781 346.449219 167.863281 346.761719 166.070312 347.140625 C 165.867188 346.785156 165.625 346.519531 165.421875 346.164062 C 164.660156 344.875 163.808594 343.546875 163.042969 342.253906 C 162.28125 340.964844 161.554688 339.589844 160.855469 338.273438 C 160.128906 336.898438 159.238281 335.65625 158.515625 334.277344 C 158.359375 334.050781 158.066406 334.230469 158.097656 334.503906 C 158.445312 336.019531 158.753906 337.625 159.375 339.109375 C 159.910156 340.554688 160.597656 342.019531 161.320312 343.394531 C 161.984375 344.792969 162.769531 346.148438 163.558594 347.5 C 163.582031 347.5625 163.582031 347.5625 163.605469 347.625 C 163.328125 347.65625 163.140625 347.726562 162.867188 347.757812 C 161.601562 348.011719 160.398438 348.242188 159.136719 348.496094 C 159.011719 347.96875 158.738281 347.425781 158.488281 346.945312 C 157.953125 346.074219 157.453125 345.113281 156.976562 344.21875 C 155.988281 342.511719 155.019531 340.867188 154.15625 339.113281 C 152.339844 335.566406 150.542969 331.871094 149.042969 328.207031 C 148.878906 327.765625 148.140625 327.898438 148.175781 328.382812 C 148.84375 332.5 149.824219 336.496094 151.480469 340.390625 C 152.265625 342.316406 153.117188 344.21875 154.152344 346.050781 C 154.628906 346.949219 155.21875 348.160156 156.015625 349.152344 C 154.203125 349.464844 152.386719 349.78125 150.574219 350.09375 C 150.144531 349.324219 149.714844 348.554688 149.375 347.820312 C 148.136719 345.0625 146.898438 342.300781 145.722656 339.519531 C 143.421875 334.078125 141.285156 328.507812 139.359375 322.925781 C 139.222656 322.546875 138.632812 322.695312 138.707031 323.097656 C 139.777344 329.066406 141.261719 334.808594 143.234375 340.515625 C 144.21875 343.367188 145.328125 346.171875 146.628906 348.910156 C 146.878906 349.390625 147.089844 349.957031 147.320312 350.585938 C 146.285156 350.683594 145.335938 350.820312 144.300781 350.917969 C 143.8125 350.957031 143.300781 350.929688 142.816406 350.96875 C 141.59375 348.058594 140.144531 345.304688 138.925781 342.398438 C 137.378906 338.609375 136.042969 334.8125 134.871094 330.882812 C 132.484375 322.898438 130.601562 314.730469 129.140625 306.546875 C 129.042969 306.082031 128.34375 306.125 128.378906 306.613281 C 128.550781 314.988281 129.871094 323.367188 132.066406 331.421875 C 133.222656 335.5 134.5625 339.507812 136.03125 343.46875 C 136.917969 345.859375 137.890625 348.289062 138.964844 350.605469 C 135.433594 349.769531 132.585938 347.679688 130.882812 343.660156 C 128.425781 337.992188 127.445312 331.488281 126.015625 325.511719 C 124.394531 318.816406 122.683594 312.085938 121.125 305.367188 C 120.035156 300.695312 118.578125 294.441406 122.4375 290.578125 C 125.582031 287.480469 130.671875 286.742188 134.84375 285.839844 C 137.410156 285.242188 140.042969 284.625 142.675781 284.007812 C 150.230469 282.210938 157.78125 280.199219 165.269531 278.210938 C 169.121094 277.210938 172.945312 276.152344 176.796875 275.152344 C 177.304688 275.179688 177.769531 275.078125 178.164062 274.789062 C 183.167969 273.4375 188.109375 272.105469 193.113281 270.75 C 199.023438 269.132812 204.894531 267.601562 210.660156 265.605469 C 211.570312 270.5625 213.472656 274.933594 215.285156 279.628906 C 217.132812 284.808594 219.097656 290.300781 220.300781 295.863281 Z M 205.789062 216.566406 C 208.585938 215.8125 213.492188 213.421875 216.398438 214.707031 C 219.652344 216.148438 219.425781 223.453125 219.863281 226.367188 C 220.4375 230.230469 220.949219 234.117188 221.496094 237.917969 C 222.546875 245.183594 223.507812 252.410156 224.554688 259.671875 C 221.222656 260.335938 218.082031 260.925781 215.296875 262.675781 C 215.449219 261.542969 215.132812 260.304688 214.949219 259.226562 C 214.742188 258.089844 214.53125 256.949219 214.238281 255.769531 C 213.753906 253.304688 213.246094 250.773438 212.761719 248.308594 C 211.6875 243.484375 210.65625 238.574219 208.804688 233.96875 C 208.710938 233.71875 208.398438 233.835938 208.34375 234.070312 C 208.125 239.085938 208.71875 244.15625 209.414062 249.121094 C 209.773438 251.632812 210.132812 254.144531 210.46875 256.597656 C 210.613281 257.757812 210.820312 258.898438 210.964844 260.058594 C 211.121094 260.859375 211.1875 261.621094 211.402344 262.398438 C 210.816406 262.546875 210.34375 263.007812 210.238281 263.691406 C 204.253906 264.335938 198.378906 265.652344 192.476562 266.910156 C 187.632812 267.917969 182.785156 268.929688 177.9375 269.9375 C 175.476562 259.050781 172.402344 248.246094 169.164062 237.574219 C 168.714844 236.167969 166.726562 236.976562 167.089844 238.34375 C 169.777344 249.078125 172.066406 259.886719 174.355469 270.695312 C 171.300781 271.324219 168.246094 271.957031 165.214844 272.652344 C 156.683594 274.527344 148.191406 276.316406 139.707031 278.316406 C 137.601562 278.808594 135.386719 279.199219 133.070312 279.703125 C 132.945312 279.175781 132.820312 278.648438 132.722656 278.183594 C 132.398438 276.730469 132.113281 275.191406 131.789062 273.738281 C 131.0625 270.433594 130.378906 267.039062 129.652344 263.730469 C 128.273438 257.304688 126.894531 250.878906 124.882812 244.6875 C 124.691406 243.972656 123.574219 244.242188 123.621094 244.941406 C 124.308594 251.625 125.648438 258.136719 127.011719 264.710938 C 127.691406 267.890625 128.328125 271.160156 129.007812 274.339844 C 129.316406 275.941406 129.6875 277.523438 130.015625 279.1875 C 130.09375 279.589844 130.171875 279.988281 130.226562 280.328125 C 125.234375 281.53125 120.457031 283.300781 117.253906 287.207031 C 116.5625 288.035156 116.039062 288.945312 115.605469 289.890625 C 112.429688 291.355469 107.285156 291.757812 104.859375 290.226562 C 102.171875 288.578125 101.246094 284.34375 100.496094 281.546875 C 99.359375 277.320312 98.433594 273.085938 97.382812 268.898438 C 96.425781 264.960938 95.441406 260.960938 94.484375 257.027344 C 93.652344 253.617188 92.457031 249.625 96.054688 247.363281 C 98.320312 245.949219 101.140625 245.261719 103.898438 244.597656 C 105.910156 255.4375 108.476562 266.214844 111.730469 276.738281 C 111.941406 277.304688 112.867188 277.105469 112.785156 276.492188 C 110.894531 265.605469 108.921875 254.679688 107.03125 243.792969 C 111.171875 242.617188 115.398438 241.480469 119.539062 240.304688 C 127.445312 238.089844 135.347656 235.875 143.214844 233.746094 C 143.675781 236.152344 144.5 238.5625 145.023438 240.945312 C 145.664062 243.636719 146.304688 246.332031 146.945312 249.027344 C 148.203125 254.355469 149.761719 259.710938 151.144531 264.992188 C 151.410156 265.894531 152.863281 265.570312 152.726562 264.621094 C 151.929688 259.195312 151.175781 253.683594 150.230469 248.238281 C 149.714844 245.5 149.222656 242.820312 148.769531 240.054688 C 148.347656 237.566406 148.027344 234.964844 147.480469 232.523438 C 154.542969 230.550781 161.609375 228.574219 168.671875 226.601562 C 175.019531 224.820312 181.308594 223.0625 187.679688 221.34375 C 188 223.371094 188.449219 225.351562 188.808594 227.292969 C 189.300781 229.96875 189.917969 232.601562 190.472656 235.257812 C 191.535156 240.441406 192.9375 245.570312 194.527344 250.632812 C 194.691406 251.070312 195.34375 250.902344 195.328125 250.476562 C 195.042969 245.078125 194.484375 239.707031 193.585938 234.390625 C 193.179688 231.75 192.75 229.046875 192.257812 226.371094 C 191.875 224.367188 191.613281 222.316406 191.167969 220.339844 C 192.007812 220.097656 192.847656 219.859375 193.753906 219.59375 C 197.796875 218.738281 201.773438 217.695312 205.789062 216.566406 Z M 156.199219 125.59375 C 161.101562 140.941406 165.347656 156.457031 169.261719 172.03125 C 173.023438 187.011719 176.011719 202.210938 179.964844 217.125 C 178.34375 217.582031 176.726562 218.039062 175.171875 218.472656 C 175.214844 215.308594 174.160156 212.265625 173.441406 209.171875 C 172.605469 205.761719 171.773438 202.351562 170.914062 198.878906 C 169.152344 191.808594 167.476562 184.777344 165.652344 177.730469 C 163.917969 170.933594 162.101562 164.097656 160.371094 157.304688 C 158.589844 150.382812 157.160156 143.046875 154.414062 136.410156 C 154.273438 136.03125 153.6875 136.179688 153.761719 136.578125 C 154.371094 143.433594 156.441406 150.175781 158 156.894531 C 159.699219 163.988281 161.3125 171.042969 163.011719 178.136719 C 164.617188 184.980469 166.375 191.835938 168.042969 198.65625 C 168.945312 202.253906 169.875 205.917969 170.714844 209.539062 C 171.519531 212.671875 172.035156 215.988281 173.617188 218.90625 C 172.25 219.269531 170.816406 219.65625 169.472656 220.082031 C 168.296875 220.375 167.140625 220.730469 165.898438 221.050781 C 165.503906 216.117188 164.1875 211.027344 163.351562 206.257812 C 162.207031 199.890625 160.957031 193.628906 159.625 187.328125 C 156.902344 174.964844 153.800781 162.742188 150.175781 150.640625 C 142.824219 125.972656 133.386719 101.863281 122.160156 78.707031 C 116.1875 66.257812 110.054688 53.371094 102.019531 42.117188 C 104.746094 41.75 107.382812 41.917969 109.90625 42.554688 C 110.109375 42.90625 110.398438 43.300781 110.6875 43.695312 C 112.113281 45.8125 113.457031 47.890625 114.757812 50.054688 C 117.292969 54.191406 119.765625 58.351562 122.136719 62.625 C 127.054688 71.457031 131.539062 80.664062 135.5 89.996094 C 135.660156 90.4375 136.289062 90.203125 136.191406 89.742188 C 133 79.980469 129.144531 70.539062 124.472656 61.402344 C 122.3125 57.121094 119.96875 52.914062 117.457031 48.839844 C 116.558594 47.382812 115.574219 45.886719 114.679688 44.433594 C 118.046875 46.1875 121.082031 48.78125 123.628906 51.988281 C 131.578125 62.054688 136.6875 74.679688 141.722656 86.332031 C 147.109375 99.140625 151.917969 112.304688 156.199219 125.59375 Z M 193.996094 71.464844 C 193.335938 84.152344 190.046875 96.316406 185.214844 107.976562 C 182.304688 114.988281 178.882812 121.765625 175.285156 128.460938 C 172.605469 133.386719 169.644531 138.132812 167.542969 143.273438 C 166.800781 140.6875 166.03125 138.039062 165.289062 135.457031 C 165.675781 134.953125 166.101562 134.367188 166.441406 133.742188 C 167.082031 132.574219 167.636719 131.367188 168.253906 130.136719 C 169.382812 127.789062 170.515625 125.4375 171.648438 123.085938 C 173.910156 118.386719 176.023438 113.667969 178.113281 108.890625 C 178.328125 108.308594 177.554688 107.953125 177.253906 108.492188 C 174.644531 113.035156 172.101562 117.554688 169.664062 122.175781 C 168.488281 124.402344 167.308594 126.625 166.128906 128.851562 C 165.554688 129.992188 164.953125 131.074219 164.375 132.21875 C 164.113281 131.3125 163.824219 130.347656 163.5625 129.445312 C 161.640625 123.292969 159.652344 117.160156 157.457031 111.039062 C 157.695312 110.523438 157.90625 109.941406 158.144531 109.425781 C 159.410156 106.667969 160.65625 103.847656 161.921875 101.089844 C 164.390625 95.59375 166.6875 90.023438 168.988281 84.453125 C 169.398438 83.441406 167.933594 82.769531 167.4375 83.738281 C 164.707031 89.113281 161.976562 94.488281 159.507812 99.980469 C 158.398438 102.394531 157.253906 104.890625 156.144531 107.304688 C 154.980469 104.160156 153.789062 100.953125 152.625 97.808594 C 153.035156 97.371094 153.382812 96.957031 153.707031 96.480469 C 154.921875 94.742188 156.136719 93.003906 157.265625 91.226562 C 159.460938 87.695312 161.460938 84.023438 163.203125 80.230469 C 166.703125 72.496094 168.984375 64.570312 170 56.113281 C 170.082031 55.367188 169.039062 55.253906 168.933594 55.9375 C 167.160156 63.890625 164.429688 71.765625 160.9375 79.140625 C 159.175781 82.867188 157.128906 86.414062 154.824219 89.84375 C 153.773438 91.449219 152.636719 93.015625 151.476562 94.515625 C 150.410156 91.835938 149.347656 89.15625 148.21875 86.5 C 148.03125 85.996094 147.785156 85.515625 147.597656 85.011719 C 148.878906 80.75 149.898438 76.363281 151.5 72.195312 C 153.53125 66.867188 156.140625 61.75 159.3125 57 C 164.183594 49.6875 174.914062 33.480469 185.566406 38.6875 C 186.796875 39.304688 187.785156 40.226562 188.625 41.34375 C 188.207031 42.714844 188.003906 44.292969 187.707031 45.617188 C 187.101562 48.417969 186.453125 51.304688 185.78125 54.125 C 184.363281 59.945312 182.859375 65.722656 181.203125 71.484375 C 177.917969 83.074219 174.160156 94.550781 170.292969 105.925781 C 170.023438 106.738281 171.191406 107.378906 171.585938 106.515625 C 176.25 95.5625 180.1875 84.378906 183.605469 72.957031 C 185.347656 67.234375 186.855469 61.453125 188.335938 55.613281 C 189.007812 52.789062 189.675781 49.964844 190.347656 47.144531 C 190.476562 46.523438 190.664062 45.878906 190.855469 45.238281 C 191.945312 47.980469 192.578125 51.035156 193.0625 53.503906 C 193.894531 59.417969 194.285156 65.492188 193.996094 71.464844 Z M 193.996094 71.464844 " fill-opacity="1" fill-rule="nonzero"/></g></g></g><g clip-path="url(#601d2c3c78)"><g clip-path="url(#1238adb124)"><g clip-path="url(#5188106559)"><path fill="#d43d3d" d="M 116.207031 132.691406 C 120.007812 143.726562 124.339844 154.636719 129.148438 165.296875 C 131.480469 170.441406 133.941406 175.535156 136.464844 180.609375 C 139.050781 185.65625 141.527344 191.175781 145.214844 195.53125 C 145.964844 196.398438 147.425781 195.710938 147.007812 194.582031 C 145.191406 189.101562 141.882812 184.035156 139.273438 178.921875 C 136.617188 173.6875 134.023438 168.425781 131.621094 163.09375 C 126.949219 152.808594 122.699219 142.300781 118.910156 131.6875 C 115.183594 121.054688 111.8125 110.21875 109.050781 99.296875 C 106.152344 88 103.988281 76.570312 101.152344 65.25 C 101.03125 64.722656 100.1875 64.964844 100.226562 65.449219 C 102.023438 88.242188 108.808594 111.1875 116.207031 132.691406 Z M 116.207031 132.691406 " fill-opacity="1" fill-rule="nonzero"/></g></g></g><g clip-path="url(#f13644f431)"><g clip-path="url(#b7a99ef979)"><g clip-path="url(#b2f3c7b18f)"><path fill="#d43d3d" d="M 137.46875 158.996094 C 137.769531 159.8125 139.097656 159.535156 138.984375 158.648438 C 138.140625 149.234375 135.140625 139.976562 131.5625 131.289062 C 127.941406 122.476562 123.671875 114.046875 118.089844 106.316406 C 117.667969 105.757812 116.707031 106.257812 117.003906 106.863281 C 120.972656 115.261719 124.96875 123.722656 128.269531 132.4375 C 131.679688 141.257812 134.230469 150.253906 137.46875 158.996094 Z M 137.46875 158.996094 " fill-opacity="1" fill-rule="nonzero"/></g></g></g><g clip-path="url(#d9e2788e9b)"><g clip-path="url(#f99479aaa2)"><g clip-path="url(#e3a35bacda)"><path fill="#d43d3d" d="M 84.953125 217.792969 C 85.8125 218.1875 86.691406 218.433594 87.601562 218.382812 C 88.222656 218.511719 88.835938 218.425781 89.464844 218.195312 C 90.414062 218.058594 91.292969 217.730469 92.058594 217.089844 C 92.46875 216.652344 92.964844 216.253906 93.375 215.816406 C 94.167969 214.875 94.621094 213.78125 94.878906 212.539062 C 94.933594 212.304688 94.925781 212.09375 94.980469 211.859375 C 95.214844 210.554688 95.070312 209.394531 94.628906 208.199219 C 94.355469 207.65625 93.996094 207.074219 93.722656 206.53125 C 92.988281 205.515625 92.050781 204.71875 90.929688 204.207031 C 90.066406 203.808594 89.191406 203.5625 88.28125 203.613281 C 87.300781 203.476562 86.410156 203.589844 85.492188 204.003906 C 84.523438 204.289062 83.777344 204.78125 83.125 205.523438 C 82.398438 206.078125 81.832031 206.863281 81.496094 207.699219 C 80.984375 208.820312 80.789062 210.039062 80.894531 211.285156 C 80.902344 211.496094 80.910156 211.710938 80.855469 211.945312 C 80.929688 212.917969 81.191406 213.820312 81.707031 214.632812 C 82.09375 215.488281 82.648438 216.214844 83.371094 216.804688 C 83.933594 217.167969 84.410156 217.492188 84.953125 217.792969 Z M 84.953125 217.792969 " fill-opacity="1" fill-rule="nonzero"/></g></g></g><g clip-path="url(#17462da2e2)"><g clip-path="url(#a6682941c9)"><g clip-path="url(#97f702ed7d)"><path fill="#d43d3d" d="M 190.648438 152.160156 C 190.871094 151.21875 190.820312 150.308594 190.515625 149.492188 C 190.378906 148.542969 190.011719 147.746094 189.433594 146.960938 C 189.058594 146.527344 188.621094 146.117188 188.222656 145.621094 C 187.285156 144.824219 186.1875 144.375 185.035156 144.15625 C 184.460938 144.15625 183.863281 144.089844 183.230469 144.109375 C 181.980469 144.214844 180.785156 144.660156 179.769531 145.394531 C 179.605469 145.527344 179.417969 145.59375 179.335938 145.769531 C 178.367188 146.628906 177.542969 147.292969 177.074219 148.539062 C 176.921875 149.09375 176.707031 149.675781 176.558594 150.230469 C 176.429688 150.851562 176.425781 151.421875 176.449219 152.058594 C 176.472656 152.121094 176.433594 152.207031 176.433594 152.207031 C 176.578125 152.796875 176.726562 153.386719 176.785156 153.9375 C 177.050781 154.839844 177.519531 155.523438 178.238281 156.117188 C 178.550781 156.574219 179.050781 156.960938 179.566406 157.195312 C 180.265625 157.726562 181.015625 158.019531 181.933594 158.179688 C 181.996094 158.15625 182.082031 158.195312 182.082031 158.195312 C 182.65625 158.199219 183.253906 158.261719 183.824219 158.265625 C 184.125 158.296875 184.460938 158.242188 184.753906 158.066406 C 185.703125 157.925781 186.496094 157.5625 187.285156 156.984375 C 187.285156 156.984375 187.347656 156.960938 187.347656 156.960938 C 187.511719 156.828125 187.636719 156.78125 187.804688 156.648438 C 188.550781 156.15625 189.164062 155.5 189.5625 154.636719 C 190.152344 153.917969 190.484375 153.078125 190.648438 152.160156 Z M 190.648438 152.160156 " fill-opacity="1" fill-rule="nonzero"/></g></g></g><g clip-path="url(#15c742e2b7)"><g clip-path="url(#77cd85205d)"><g clip-path="url(#7199d1ff87)"><path fill="#d43d3d" d="M 201.183594 187.734375 C 201.574219 188.019531 201.964844 188.300781 202.398438 188.5 C 202.570312 188.578125 202.632812 188.554688 202.804688 188.636719 C 203.234375 188.832031 203.644531 188.96875 204.175781 189.054688 C 205.15625 189.195312 206.128906 189.117188 207.074219 188.769531 C 208.015625 188.417969 208.804688 187.84375 209.457031 187.097656 C 209.457031 187.097656 209.496094 187.011719 209.496094 187.011719 C 210.089844 186.292969 210.484375 185.429688 210.683594 184.425781 C 210.886719 183.421875 210.746094 182.472656 210.398438 181.53125 C 210.304688 181.277344 210.148438 181.050781 210.015625 180.882812 C 209.921875 180.632812 209.789062 180.46875 209.632812 180.238281 C 209.632812 180.238281 209.632812 180.238281 209.609375 180.175781 C 209.585938 180.113281 208.664062 179.167969 208.578125 179.128906 C 207.945312 178.578125 206.800781 178 205.929688 177.964844 C 205.695312 177.910156 205.421875 177.9375 205.207031 177.945312 C 204.996094 177.953125 204.699219 177.921875 204.488281 177.929688 C 203.9375 177.988281 203.410156 178.113281 202.90625 178.296875 C 202.90625 178.296875 202.84375 178.320312 202.84375 178.320312 C 202.425781 178.546875 201.949219 178.796875 201.53125 179.023438 C 201.160156 179.375 200.851562 179.703125 200.460938 179.992188 C 200.089844 180.34375 199.890625 180.773438 199.695312 181.207031 C 199.582031 181.675781 199.382812 182.105469 199.273438 182.578125 C 199.128906 183.347656 199.171875 184.046875 199.367188 184.761719 C 199.402344 185.246094 199.589844 185.75 199.878906 186.144531 C 200.152344 186.6875 200.574219 187.246094 201.183594 187.734375 Z M 205.535156 189.054688 C 205.597656 189.03125 205.472656 189.078125 205.535156 189.054688 Z M 205.535156 189.054688 " fill-opacity="1" fill-rule="nonzero"/></g></g></g><g clip-path="url(#48ae0cbe16)"><g clip-path="url(#26aacc0cba)"><g clip-path="url(#6aa68a81c7)"><path fill="#d43d3d" d="M 138.6875 42.832031 C 138.6875 42.832031 138.773438 42.871094 138.773438 42.871094 C 138.773438 42.871094 138.773438 42.871094 138.6875 42.832031 C 138.96875 43.011719 139.164062 43.152344 139.359375 43.296875 C 139.945312 43.722656 140.527344 43.9375 141.210938 44.042969 C 141.421875 44.035156 141.65625 44.089844 141.867188 44.082031 C 142.082031 44.074219 142.253906 44.15625 142.441406 44.085938 C 142.441406 44.085938 142.503906 44.0625 142.527344 44.125 C 142.527344 44.125 142.589844 44.101562 142.589844 44.101562 C 142.589844 44.101562 142.589844 44.101562 142.652344 44.078125 C 142.800781 44.09375 142.90625 43.984375 143.054688 44 C 143.179688 43.953125 143.265625 43.992188 143.390625 43.949219 C 143.519531 43.902344 143.582031 43.878906 143.707031 43.832031 C 143.769531 43.808594 143.917969 43.824219 143.980469 43.800781 C 143.980469 43.800781 143.980469 43.800781 144.042969 43.777344 C 144.484375 43.613281 144.925781 43.449219 145.316406 43.164062 C 145.625 42.832031 145.957031 42.566406 146.261719 42.238281 C 146.855469 41.519531 147.210938 40.746094 147.332031 39.914062 C 147.308594 39.851562 147.324219 39.699219 147.378906 39.464844 C 147.414062 39.167969 147.46875 38.933594 147.4375 38.65625 C 147.414062 38.59375 147.476562 38.570312 147.457031 38.507812 C 147.457031 38.507812 147.433594 38.445312 147.433594 38.445312 C 147.457031 38.507812 147.390625 38.53125 147.414062 38.59375 C 147.386719 38.320312 147.355469 38.042969 147.261719 37.792969 C 147.15625 37.117188 146.898438 36.425781 146.476562 35.867188 C 146.148438 35.558594 145.859375 35.167969 145.53125 34.859375 C 144.8125 34.265625 144.035156 33.910156 143.117188 33.75 C 143.054688 33.773438 141.800781 33.667969 141.734375 33.691406 C 141.734375 33.691406 141.734375 33.691406 141.671875 33.714844 C 141.671875 33.714844 141.671875 33.714844 141.609375 33.738281 C 141.546875 33.761719 140.28125 34.015625 140.21875 34.039062 C 139.339844 34.363281 138.617188 34.917969 138.023438 35.636719 C 137.433594 36.359375 137.078125 37.132812 136.914062 38.050781 C 136.753906 38.96875 136.808594 39.878906 137.132812 40.761719 C 137.34375 41.324219 137.679688 41.84375 138.054688 42.277344 C 138.226562 42.359375 138.445312 42.5625 138.6875 42.832031 Z M 147.347656 39.761719 Z M 142.714844 44.054688 C 142.652344 44.078125 142.652344 44.078125 142.714844 44.054688 C 142.78125 44.03125 142.90625 43.984375 143.054688 44 C 142.929688 44.046875 142.800781 44.09375 142.714844 44.054688 Z M 144.042969 43.777344 C 143.917969 43.824219 143.855469 43.847656 143.792969 43.871094 C 143.855469 43.847656 143.980469 43.800781 144.042969 43.777344 Z M 144.042969 43.777344 " fill-opacity="1" fill-rule="nonzero"/></g></g></g><g clip-path="url(#63ad40d0bd)"><g clip-path="url(#e24f68e064)"><g clip-path="url(#b2542b3e10)"><path fill="#d43d3d" d="M 48.964844 87.878906 C 49.75 88.449219 50.585938 88.78125 51.566406 88.917969 C 52.570312 89.117188 53.480469 89.066406 54.449219 88.78125 C 55.460938 88.621094 56.339844 88.292969 57.167969 87.628906 C 58.246094 86.871094 59.019531 85.871094 59.535156 84.75 C 59.652344 84.492188 59.75 84.171875 59.804688 83.933594 C 59.683594 84.195312 59.652344 84.492188 59.535156 84.75 C 59.535156 84.75 59.535156 84.75 59.574219 84.664062 C 59.789062 84.085938 59.914062 83.464844 60.128906 82.886719 C 60.332031 81.882812 60.277344 80.96875 59.992188 80.003906 C 59.949219 79.304688 59.738281 78.738281 59.316406 78.179688 C 58.902344 77.261719 58.347656 76.535156 57.542969 75.90625 C 57.003906 75.605469 56.503906 75.21875 55.960938 74.917969 C 55.382812 74.703125 54.761719 74.574219 54.183594 74.363281 C 53.179688 74.160156 52.269531 74.214844 51.300781 74.5 C 50.289062 74.660156 49.40625 74.988281 48.582031 75.652344 C 48.085938 76.050781 47.550781 76.535156 47.164062 77.035156 C 46.390625 78.035156 45.8125 79.179688 45.621094 80.394531 C 45.578125 81.054688 45.574219 81.628906 45.535156 82.285156 C 45.660156 83.597656 46.128906 84.855469 46.886719 85.933594 C 47.359375 86.832031 48.105469 87.484375 48.964844 87.878906 Z M 48.964844 87.878906 " fill-opacity="1" fill-rule="nonzero"/></g></g></g><g clip-path="url(#ea70693dc5)"><g clip-path="url(#76b507db03)"><g clip-path="url(#6faa55c2d7)"><path fill="#d43d3d" d="M 64 46.621094 C 64.523438 47.070312 65.039062 47.308594 65.683594 47.5 C 66.113281 47.699219 66.496094 47.769531 66.898438 47.695312 C 67.347656 47.742188 67.769531 47.726562 68.148438 47.589844 C 68.570312 47.574219 69.011719 47.410156 69.339844 47.144531 C 69.96875 46.914062 70.464844 46.515625 70.828125 45.949219 C 71.175781 45.535156 71.398438 45.167969 71.574219 44.675781 C 71.929688 43.898438 72.050781 43.066406 72 42.15625 C 71.898438 41.691406 71.820312 41.292969 71.722656 40.828125 C 71.417969 40.011719 70.925781 39.265625 70.230469 38.734375 C 69.707031 38.285156 69.164062 37.984375 68.546875 37.859375 C 67.941406 37.582031 67.28125 37.539062 66.671875 37.621094 C 65.972656 37.667969 65.320312 37.835938 64.824219 38.234375 C 64.195312 38.46875 63.699219 38.867188 63.335938 39.429688 C 62.808594 40.128906 62.425781 40.839844 62.265625 41.757812 C 62.179688 42.289062 62.128906 42.738281 62.191406 43.289062 C 62.265625 43.6875 62.367188 44.152344 62.445312 44.550781 C 62.648438 44.90625 62.875 45.324219 63.074219 45.675781 C 63.40625 45.984375 63.671875 46.316406 64 46.621094 Z M 64 46.621094 " fill-opacity="1" fill-rule="nonzero"/></g></g></g></g></g></g></svg>