<svg xmlns="http://www.w3.org/2000/svg" xmlns:xlink="http://www.w3.org/1999/xlink" width="500" zoomAndPan="magnify" viewBox="0 0 375 374.999991" height="500" preserveAspectRatio="xMidYMid meet" version="1.0"><defs><filter x="0%" y="0%" width="100%" height="100%" id="7afa328a46"><feColorMatrix values="0 0 0 0 1 0 0 0 0 1 0 0 0 0 1 0 0 0 1 0" color-interpolation-filters="sRGB"/></filter><mask id="8b60a695db"><g filter="url(#7afa328a46)"><rect x="-37.5" width="450" fill="#000000" y="-37.499999" height="449.999989" fill-opacity="0.23"/></g></mask><clipPath id="d93bf736b4"><path d="M 1 0.0390625 L 234.558594 0.0390625 L 234.558594 271 L 1 271 Z M 1 0.0390625 " clip-rule="nonzero"/></clipPath><clipPath id="23ed2f5770"><rect x="0" width="235" y="0" height="272"/></clipPath></defs><g mask="url(#8b60a695db)"><g transform="matrix(1, 0, 0, 1, 70, 53)"><g clip-path="url(#23ed2f5770)"><g clip-path="url(#d93bf736b4)"><path fill="#d43d3d" d="M 170.839844 31.933594 C 163.992188 11.84375 138.21875 20.097656 122.902344 17.386719 C 110.230469 15.140625 98.828125 5.78125 86.183594 2.511719 C 62.28125 -3.671875 27.816406 8.039062 14.320312 28.875 C 0.574219 50.101562 -0.820312 80.390625 4.824219 104.351562 C 6.898438 113.164062 11.714844 121.035156 13.867188 129.851562 C 17.847656 146.152344 19.449219 167.144531 18.582031 183.914062 C 17.78125 199.46875 -1.082031 224.363281 8.136719 238.992188 C 13.546875 247.574219 25.378906 252 34.164062 256.109375 C 57.992188 267.25 83.539062 270.945312 109.472656 270.933594 C 119.117188 270.929688 137.269531 267.859375 145.019531 261.4375 C 149.0625 258.089844 148.109375 250.8125 148.695312 246.132812 C 150.234375 233.746094 150.304688 218.34375 156.652344 207.371094 C 172.46875 180.035156 192.484375 155.0625 210.070312 128.832031 C 218.070312 116.90625 229.140625 103.320312 232.519531 89.054688 C 236.035156 74.191406 234.664062 50.738281 223.496094 39.417969 C 210.363281 26.113281 189.679688 26.605469 173.210938 31.480469 M 112.703125 19.691406 C 92.820312 25.878906 79.074219 56.160156 79.042969 75.792969 C 78.804688 82.097656 76.59375 93.613281 83.121094 97.210938 C 80.269531 74.628906 84.734375 40.84375 105.738281 26.980469 C 120.207031 17.429688 153.09375 15.851562 165.34375 30 C 172.945312 38.78125 173.003906 52.601562 171.675781 63.554688 C 169.507812 81.414062 154.378906 93.15625 147.382812 108.433594 C 160.144531 104.839844 174.792969 76.394531 175.460938 63.554688 C 176.136719 50.644531 169.992188 37.226562 186.140625 32.878906 C 218.433594 24.183594 229.863281 53.835938 228.605469 79.429688 C 227.214844 88.941406 221.898438 103.222656 216.6875 111.492188 C 205.011719 130.019531 193.550781 150.121094 179.050781 166.574219 C 174.425781 171.820312 160.65625 194.628906 152.09375 184.304688 C 149.164062 180.773438 152.960938 175.820312 154.835938 172.691406 C 161.304688 161.898438 168.652344 152.046875 174.921875 141.074219 C 162.390625 147.238281 159.617188 167.882812 146.363281 175.742188 C 139.417969 179.863281 125.617188 173.753906 124.246094 165.539062 C 122.84375 157.140625 127.996094 146.03125 132.082031 139.03125 C 122.925781 145.792969 125.238281 158.652344 117.402344 164.792969 C 113.296875 168.011719 105.8125 165.605469 101.375 164.5 C 96.601562 163.3125 89.234375 162.765625 85.777344 158.910156 C 83.207031 156.042969 84.148438 150.730469 84.140625 147.191406 C 84.128906 139.242188 83.109375 131.390625 81.082031 123.734375 C 81.082031 123.734375 83.367188 149.484375 78.167969 156.046875 C 73.238281 162.269531 53.078125 160.328125 51.53125 153.292969 L 49.460938 129.851562 C 46.777344 137.214844 49.109375 145.148438 46.433594 152.273438 C 44.820312 156.574219 35.617188 162.609375 32.738281 156.207031 C 30.132812 150.417969 31.601562 140.304688 30.996094 133.933594 C 30.152344 125.042969 27.234375 115.089844 24.980469 106.394531 C 24.980469 106.394531 27.886719 133.375 28.039062 146.171875 C 28.105469 151.738281 26.429688 164.15625 22.605469 158.421875 C 18.363281 147.410156 19.6875 140.808594 16.925781 129.5 C 14.855469 121.015625 10.296875 110.734375 8.128906 102.3125 C 2.453125 80.234375 4.734375 53.988281 16.148438 33.972656 C 30.847656 8.1875 70.476562 -1.972656 96.382812 10.253906 C 101.769531 12.792969 109.328125 14.539062 112.703125 19.691406 M 48.441406 60.492188 L 49.238281 61.847656 C 50.441406 46.710938 60.070312 26.578125 75.980469 22.75 C 60.289062 16.226562 43.21875 47.867188 48.441406 60.492188 M 197.359375 49.273438 C 200.738281 57.507812 204.039062 65.078125 202.320312 74.253906 C 201.667969 81.570312 196.957031 89.992188 195.320312 97.210938 C 206.023438 88.3125 211.058594 58.425781 197.359375 49.273438 M 145.339844 251.230469 C 107.21875 231.171875 52.144531 220.617188 9.683594 231.851562 C 10.410156 215.9375 20.570312 201.894531 21.828125 185.949219 C 22.253906 180.554688 20.457031 170.609375 24.570312 166.265625 C 30.871094 159.613281 46.253906 161.375 54.5625 161.476562 C 81.929688 161.800781 112.054688 166.90625 136.160156 180.417969 C 142.296875 183.855469 152.011719 186.980469 155.929688 193.132812 C 159.417969 198.613281 152.582031 205.289062 150.808594 210.429688 C 146.71875 222.273438 145.351562 238.691406 145.34375 251.230469 M 136.535156 252.488281 C 141.476562 255.617188 144.589844 258.140625 140.285156 260.75 C 115.097656 272.695312 85.300781 266.679688 59.664062 257.535156 C 53.058594 255.179688 34.039062 250.445312 34.71875 241.074219 C 35.441406 231.183594 51.828125 232.761719 58.089844 232.761719 C 85.355469 233.890625 111.667969 239.015625 136.535156 252.488281 Z M 136.535156 252.488281 " fill-opacity="1" fill-rule="nonzero"/></g></g></g></g></svg>