<svg xmlns="http://www.w3.org/2000/svg" xmlns:xlink="http://www.w3.org/1999/xlink" width="500" zoomAndPan="magnify" viewBox="0 0 375 374.999991" height="500" preserveAspectRatio="xMidYMid meet" version="1.0"><defs><filter x="0%" y="0%" width="100%" height="100%" id="729229f6d9"><feColorMatrix values="0 0 0 0 1 0 0 0 0 1 0 0 0 0 1 0 0 0 1 0" color-interpolation-filters="sRGB"/></filter><mask id="1d5f53445e"><g filter="url(#729229f6d9)"><rect x="-37.5" width="450" fill="#000000" y="-37.499999" height="449.999989" fill-opacity="0.23"/></g></mask><clipPath id="4c4b327fff"><path d="M 0.390625 0.359375 L 332 0.359375 L 332 236 L 0.390625 236 Z M 0.390625 0.359375 " clip-rule="nonzero"/></clipPath><clipPath id="13763bceb0"><rect x="0" width="333" y="0" height="237"/></clipPath></defs><g mask="url(#1d5f53445e)"><g transform="matrix(1, 0, 0, 1, 21, 69)"><g clip-path="url(#13763bceb0)"><g clip-path="url(#4c4b327fff)"><path fill="#d43d3d" d="M 171.789062 233.847656 C 144.210938 233.152344 119.925781 224.308594 98.589844 206.960938 C 74.824219 187.535156 60.949219 162.210938 56.441406 132.203125 C 52.277344 104.449219 58.175781 78.429688 72.917969 54.320312 C 81.765625 39.75 93.558594 28.300781 107.261719 18.414062 C 110.558594 15.984375 113.679688 13.382812 118.191406 13.554688 C 119.230469 13.554688 120.445312 12.6875 121.660156 12.167969 C 138.484375 3.320312 156.523438 -0.496094 175.433594 0.71875 C 201.972656 2.453125 225.5625 11.820312 245.683594 29.6875 C 263.894531 45.820312 276.039062 65.765625 281.589844 89.53125 C 290.261719 126.652344 283.324219 160.996094 259.90625 191.175781 C 243.082031 213.03125 220.355469 226.042969 193.472656 231.417969 C 186.53125 232.632812 179.074219 232.980469 171.789062 233.847656 Z M 64.070312 116.589844 C 64.070312 120.753906 63.726562 124.742188 64.070312 128.90625 C 66.5 149.546875 73.613281 168.453125 86.273438 184.933594 C 97.722656 199.851562 111.945312 211.296875 129.292969 218.582031 C 145.597656 225.347656 162.25 228.296875 179.941406 226.5625 C 191.390625 225.347656 202.316406 222.746094 212.726562 218.0625 C 233.714844 208.695312 249.84375 193.953125 261.640625 174.351562 C 275.171875 151.976562 280.199219 127.691406 276.558594 101.847656 C 272.222656 71.144531 257.652344 45.992188 232.847656 27.257812 C 216.714844 15.117188 198.5 8.003906 178.554688 6.269531 C 160.339844 4.710938 142.820312 7.832031 125.996094 14.769531 C 123.046875 15.984375 120.097656 16.851562 118.539062 19.972656 C 118.015625 21.015625 116.804688 21.707031 115.589844 22.230469 C 100.496094 30.207031 89.222656 42.351562 80.375 56.398438 C 68.753906 74.785156 63.378906 94.90625 64.070312 116.589844 Z M 13.074219 94.734375 C 11.6875 90.570312 11.339844 86.0625 11.167969 81.726562 C 10.648438 70.796875 10.648438 60.042969 9.953125 49.113281 C 9.605469 44.605469 8.566406 40.09375 7.523438 35.757812 C 7.175781 34.542969 5.964844 33.15625 4.921875 32.808594 C 3.015625 32.289062 2.320312 34.199219 1.800781 35.757812 C 1.625 36.277344 1.453125 36.972656 1.453125 37.667969 C 1.105469 42.175781 0.585938 46.6875 0.585938 51.195312 C 0.757812 60.910156 1.105469 70.625 1.453125 80.511719 C 1.800781 87.96875 3.1875 95.082031 5.617188 102.191406 C 7.003906 106.183594 7.871094 110.519531 7.871094 114.683594 C 8.042969 125.089844 7.699219 135.496094 7.175781 145.90625 C 6.65625 154.75 5.964844 163.597656 4.921875 172.445312 C 3.707031 183.023438 2.667969 193.777344 4.230469 204.359375 C 5.441406 212.511719 7.351562 220.492188 11.515625 227.601562 C 15.675781 234.542969 23.65625 237.488281 31.113281 234.886719 C 35.796875 233.328125 38.574219 229.683594 40.132812 225.175781 C 41.867188 220.316406 42.214844 215.460938 42.214844 210.257812 C 42.042969 190.65625 40.828125 171.230469 39.09375 151.800781 C 38.398438 144.691406 37.53125 137.75 36.664062 130.640625 C 34.929688 117.457031 34.410156 104.273438 40.132812 91.613281 C 44.644531 81.898438 45.683594 71.664062 45.164062 61.082031 C 44.816406 53.625 44.472656 46.339844 43.949219 38.878906 C 43.777344 34.71875 43.429688 30.382812 43.082031 26.21875 C 42.910156 24.65625 42.738281 22.75 40.65625 22.75 C 38.574219 22.75 38.398438 24.65625 38.226562 26.21875 C 38.226562 26.390625 38.226562 26.566406 38.226562 26.738281 C 37.878906 36.105469 37.53125 45.644531 37.011719 55.011719 C 36.839844 59.871094 36.492188 64.726562 35.972656 69.582031 C 35.449219 75.480469 33.714844 80.859375 30.59375 86.0625 C 26.085938 93.171875 24.523438 101.152344 24.523438 109.476562 C 24.523438 124.570312 27.644531 139.140625 28.859375 154.058594 C 29.902344 165.503906 31.289062 176.953125 32.328125 188.402344 C 33.023438 195.6875 33.714844 202.796875 33.890625 210.082031 C 34.0625 214.421875 33.714844 218.929688 33.023438 223.265625 C 31.808594 229.683594 26.605469 231.765625 21.402344 227.777344 C 19.320312 226.214844 17.410156 223.785156 16.199219 221.359375 C 14.636719 218.238281 13.59375 214.941406 12.902344 211.644531 C 10.125 200.542969 10.300781 189.09375 12.035156 177.820312 C 14.808594 159.953125 16.542969 141.914062 16.542969 121.621094 C 17.066406 114.160156 16.199219 104.273438 13.074219 94.734375 Z M 307.953125 143.476562 C 307.261719 147.984375 306.566406 152.496094 305.523438 157.003906 C 302.054688 174.003906 302.402344 191.175781 304.3125 208.175781 C 304.832031 212.164062 305.699219 216.328125 306.914062 220.144531 C 308.648438 225.867188 312.464844 230.203125 318.535156 231.59375 C 325.472656 233.328125 332.410156 232.113281 331.71875 222.574219 C 331.71875 221.707031 331.71875 220.664062 331.71875 219.796875 C 331.371094 199.675781 331.371094 179.554688 330.851562 159.261719 C 330.328125 140.179688 329.636719 121.101562 328.941406 102.191406 C 328.59375 88.835938 328.25 75.480469 327.726562 62.125 C 327.382812 53.972656 326.859375 45.820312 326.515625 37.667969 C 326.339844 33.332031 326.167969 28.820312 325.644531 24.484375 C 325.472656 21.882812 324.777344 19.28125 324.257812 16.679688 C 324.085938 15.984375 323.042969 15.636719 322.351562 14.945312 C 322.003906 15.8125 321.65625 16.332031 321.65625 16.679688 C 322.175781 36.277344 322.351562 55.707031 321.308594 75.308594 C 320.441406 91.089844 320.097656 106.875 320.097656 122.488281 C 320.097656 140.699219 320.441406 159.085938 320.964844 177.300781 C 321.308594 190.65625 322.351562 204.011719 323.042969 217.367188 C 323.21875 219.277344 323.390625 221.359375 323.738281 223.613281 C 320.097656 223.09375 318.015625 221.183594 316.972656 218.410156 C 315.933594 215.460938 315.066406 212.339844 314.546875 209.214844 C 313.332031 200.371094 312.289062 191.351562 311.421875 182.503906 C 310.902344 175.390625 310.902344 168.28125 310.902344 161.34375 C 310.902344 155.445312 311.25 149.375 311.421875 143.476562 C 311.421875 142.261719 311.074219 141.222656 310.730469 139.660156 C 308.300781 140.355469 308.128906 141.914062 307.953125 143.476562 Z M 309.339844 74.785156 C 311.074219 58.65625 312.808594 42.523438 314.546875 26.390625 C 314.71875 24.484375 314.71875 22.574219 314.371094 20.667969 C 314.199219 19.800781 313.332031 19.105469 312.464844 18.066406 C 311.769531 19.453125 311.074219 20.320312 310.902344 21.1875 C 308.472656 31.25 305.871094 41.308594 304.136719 51.542969 C 301.015625 68.714844 298.414062 86.0625 295.984375 103.234375 C 295.117188 109.132812 294.769531 115.203125 294.597656 121.101562 C 294.425781 125.609375 296.851562 128.210938 301.1875 128.90625 C 304.136719 129.425781 307.085938 129.078125 310.035156 129.078125 C 311.769531 129.078125 313.15625 128.386719 313.503906 126.652344 C 313.851562 124.742188 313.15625 123.179688 311.421875 122.3125 C 309.167969 121.101562 306.914062 120.058594 304.3125 118.496094 C 306.046875 103.753906 307.78125 89.355469 309.339844 74.785156 Z M 23.136719 58.480469 C 23.65625 50.847656 24.003906 43.21875 24.175781 35.410156 C 24.175781 32.808594 23.308594 30.207031 22.617188 27.605469 C 22.441406 26.914062 21.226562 26.042969 20.707031 26.042969 C 19.839844 26.21875 18.972656 27.085938 18.277344 27.78125 C 17.933594 28.125 17.757812 28.992188 17.757812 29.515625 C 17.410156 39.402344 17.066406 49.289062 16.890625 59.175781 C 16.890625 61.257812 17.410156 63.164062 19.667969 64.378906 C 22.441406 63.339844 22.960938 60.738281 23.136719 58.480469 Z M 28.164062 29.339844 C 27.644531 31.769531 27.125 34.199219 26.953125 36.800781 C 26.777344 44.953125 26.953125 53.105469 26.953125 61.257812 C 26.953125 62.125 26.777344 62.992188 27.125 63.511719 C 27.644531 64.550781 28.6875 65.246094 29.378906 66.113281 C 30.246094 65.246094 31.460938 64.550781 31.808594 63.683594 C 32.328125 61.257812 32.328125 58.65625 32.675781 56.226562 C 34.238281 47.035156 32.328125 38.1875 31.289062 29.167969 C 31.289062 28.472656 30.421875 27.78125 29.554688 26.738281 C 29.207031 27.953125 28.339844 28.648438 28.164062 29.339844 Z M 237.007812 166.546875 C 233.714844 169.839844 230.589844 173.484375 226.949219 176.433594 C 207.867188 192.21875 185.839844 197.941406 161.554688 193.777344 C 142.996094 190.65625 127.035156 181.984375 114.027344 168.453125 C 95.816406 149.71875 87.488281 127.519531 90.609375 101.324219 C 90.785156 100.457031 91.132812 99.417969 90.957031 98.550781 C 90.785156 96.640625 89.917969 95.253906 87.835938 94.90625 C 85.925781 94.5625 84.367188 95.253906 83.5 97.164062 C 83.152344 97.855469 82.980469 98.550781 82.804688 99.417969 C 81.589844 108.089844 81.417969 116.761719 82.980469 125.261719 C 88.527344 154.402344 104.835938 175.738281 130.679688 189.789062 C 145.597656 197.941406 161.902344 201.0625 178.902344 200.195312 C 194.339844 199.503906 208.5625 194.820312 221.226562 185.972656 C 227.988281 181.289062 233.714844 175.566406 238.398438 168.628906 C 239.089844 167.585938 240.304688 166.71875 238.570312 165.15625 C 238.222656 165.679688 237.53125 166.027344 237.007812 166.546875 Z M 254.355469 125.089844 C 254.703125 124.570312 254.875 124.046875 255.050781 123.355469 C 258.34375 113.988281 258.519531 104.621094 256.261719 95.082031 C 251.925781 76.695312 241.347656 62.296875 226.773438 50.847656 C 212.03125 39.402344 195.207031 32.808594 176.644531 30.554688 C 156.871094 28.125 138.136719 31.421875 120.617188 41.308594 C 112.464844 45.992188 105.355469 51.890625 99.976562 59.695312 C 99.109375 60.910156 98.417969 62.125 97.894531 63.339844 C 97.027344 65.246094 97.550781 66.808594 99.109375 68.023438 C 100.671875 69.234375 102.40625 69.234375 103.96875 68.023438 C 105.007812 67.15625 106.046875 65.941406 106.742188 64.898438 C 114.546875 53.625 125.300781 46.167969 138.136719 41.828125 C 154.617188 36.277344 171.617188 35.757812 188.441406 39.75 C 212.03125 45.296875 231.285156 57.613281 244.46875 78.429688 C 251.578125 89.878906 254.875 102.539062 253.3125 116.242188 C 253.140625 118.496094 252.621094 120.578125 252.445312 122.835938 C 252.445312 123.875 252.621094 124.914062 252.96875 126.304688 C 253.835938 125.4375 254.183594 125.261719 254.355469 125.089844 Z M 254.355469 125.089844 " fill-opacity="1" fill-rule="nonzero"/></g></g></g></g></svg>